<svg width="194" height="111" viewBox="0 0 194 111" fill="none" xmlns="http://www.w3.org/2000/svg">
<path d="M98.8068 42H89.5256V15.8182H98.8835C101.517 15.8182 103.784 16.3423 105.685 17.3906C107.585 18.4304 109.047 19.9261 110.07 21.8778C111.101 23.8295 111.616 26.1648 111.616 28.8835C111.616 31.6108 111.101 33.9545 110.07 35.9148C109.047 37.875 107.577 39.3793 105.659 40.4276C103.75 41.4759 101.466 42 98.8068 42ZM95.0611 37.2571H98.5767C100.213 37.2571 101.589 36.9673 102.706 36.3878C103.831 35.7997 104.675 34.892 105.237 33.6648C105.808 32.429 106.094 30.8352 106.094 28.8835C106.094 26.9489 105.808 25.3679 105.237 24.1406C104.675 22.9134 103.835 22.0099 102.719 21.4304C101.602 20.8509 100.226 20.5611 98.5895 20.5611H95.0611V37.2571ZM133.078 24.2812C132.899 23.6591 132.647 23.1094 132.324 22.6321C132 22.1463 131.603 21.7372 131.135 21.4048C130.674 21.0639 130.146 20.804 129.549 20.625C128.961 20.446 128.309 20.3565 127.593 20.3565C126.255 20.3565 125.079 20.6889 124.065 21.3537C123.059 22.0185 122.275 22.9858 121.713 24.2557C121.15 25.517 120.869 27.0597 120.869 28.8835C120.869 30.7074 121.146 32.2585 121.7 33.5369C122.254 34.8153 123.038 35.7912 124.052 36.4645C125.066 37.1293 126.264 37.4616 127.645 37.4616C128.897 37.4616 129.967 37.2401 130.853 36.7969C131.748 36.3452 132.43 35.7102 132.899 34.892C133.376 34.0739 133.615 33.1065 133.615 31.9901L134.74 32.1562H127.99V27.9886H138.946V31.2869C138.946 33.5881 138.46 35.5653 137.488 37.2188C136.517 38.8636 135.179 40.1335 133.474 41.0284C131.77 41.9148 129.818 42.358 127.619 42.358C125.164 42.358 123.008 41.8168 121.15 40.7344C119.292 39.6435 117.843 38.0966 116.804 36.0938C115.772 34.0824 115.257 31.696 115.257 28.9347C115.257 26.8125 115.564 24.9205 116.177 23.2585C116.799 21.5881 117.669 20.1733 118.785 19.0142C119.902 17.8551 121.201 16.973 122.684 16.3679C124.167 15.7628 125.774 15.4602 127.504 15.4602C128.987 15.4602 130.368 15.6776 131.646 16.1122C132.924 16.5384 134.058 17.1435 135.047 17.9276C136.044 18.7116 136.858 19.6449 137.488 20.7273C138.119 21.8011 138.524 22.9858 138.703 24.2812H133.078ZM140.982 20.3821V15.8182H162.484V20.3821H154.469V42H148.997V20.3821H140.982Z" fill="#3758F9"/>
<path d="M41.4041 101.727H42.4126L44.4297 105.122H44.5149L46.532 101.727H47.5405L44.9126 106.003V109H44.032V106.003L41.4041 101.727ZM50.0103 109.114C49.5179 109.114 49.0858 108.996 48.7141 108.762C48.3448 108.528 48.056 108.2 47.8477 107.778C47.6417 107.357 47.5387 106.865 47.5387 106.301C47.5387 105.733 47.6417 105.237 47.8477 104.813C48.056 104.389 48.3448 104.06 48.7141 103.826C49.0858 103.592 49.5179 103.474 50.0103 103.474C50.5027 103.474 50.9336 103.592 51.3029 103.826C51.6746 104.06 51.9634 104.389 52.1694 104.813C52.3777 105.237 52.4819 105.733 52.4819 106.301C52.4819 106.865 52.3777 107.357 52.1694 107.778C51.9634 108.2 51.6746 108.528 51.3029 108.762C50.9336 108.996 50.5027 109.114 50.0103 109.114ZM50.0103 108.361C50.3844 108.361 50.6921 108.265 50.9336 108.073C51.1751 107.881 51.3538 107.629 51.4698 107.317C51.5858 107.004 51.6438 106.666 51.6438 106.301C51.6438 105.937 51.5858 105.597 51.4698 105.282C51.3538 104.967 51.1751 104.713 50.9336 104.518C50.6921 104.324 50.3844 104.227 50.0103 104.227C49.6362 104.227 49.3285 104.324 49.087 104.518C48.8455 104.713 48.6668 104.967 48.5508 105.282C48.4348 105.597 48.3768 105.937 48.3768 106.301C48.3768 106.666 48.4348 107.004 48.5508 107.317C48.6668 107.629 48.8455 107.881 49.087 108.073C49.3285 108.265 49.6362 108.361 50.0103 108.361ZM57.1987 106.77V103.545H58.0368V109H57.1987V108.077H57.1419C57.014 108.354 56.8152 108.589 56.5453 108.783C56.2754 108.975 55.9345 109.071 55.5225 109.071C55.1816 109.071 54.8786 108.996 54.6135 108.847C54.3483 108.696 54.14 108.469 53.9885 108.165C53.8369 107.86 53.7612 107.475 53.7612 107.011V103.545H54.5993V106.955C54.5993 107.352 54.7105 107.67 54.9331 107.906C55.158 108.143 55.4444 108.261 55.7924 108.261C56.0008 108.261 56.2127 108.208 56.4281 108.102C56.6459 107.995 56.8282 107.832 56.975 107.612C57.1241 107.391 57.1987 107.111 57.1987 106.77ZM59.5717 109V103.545H60.3814V104.369H60.4382C60.5376 104.099 60.7176 103.88 60.978 103.712C61.2384 103.544 61.532 103.46 61.8587 103.46C61.9202 103.46 61.9972 103.461 62.0895 103.464C62.1818 103.466 62.2517 103.47 62.299 103.474V104.327C62.2706 104.32 62.2055 104.309 62.1037 104.295C62.0043 104.278 61.8989 104.27 61.7876 104.27C61.5225 104.27 61.2857 104.326 61.0774 104.437C60.8714 104.546 60.7081 104.697 60.5874 104.891C60.469 105.083 60.4098 105.302 60.4098 105.548V109H59.5717ZM68.4629 109H66.2186V101.727H68.5623C69.2678 101.727 69.8715 101.873 70.3734 102.164C70.8753 102.453 71.26 102.868 71.5275 103.411C71.795 103.95 71.9288 104.597 71.9288 105.349C71.9288 106.107 71.7939 106.759 71.524 107.306C71.2541 107.851 70.8611 108.27 70.345 108.563C69.8289 108.854 69.2015 109 68.4629 109ZM67.0993 108.219H68.4061C69.0074 108.219 69.5057 108.103 69.9011 107.871C70.2965 107.639 70.5912 107.308 70.7853 106.88C70.9795 106.451 71.0765 105.941 71.0765 105.349C71.0765 104.762 70.9806 104.257 70.7889 103.833C70.5971 103.407 70.3107 103.08 69.9295 102.853C69.5484 102.623 69.0737 102.509 68.5055 102.509H67.0993V108.219ZM74.8975 109.128C74.5519 109.128 74.2382 109.063 73.9565 108.933C73.6748 108.8 73.4511 108.609 73.2853 108.361C73.1196 108.11 73.0368 107.807 73.0368 107.452C73.0368 107.139 73.0983 106.886 73.2214 106.692C73.3445 106.495 73.5091 106.341 73.715 106.23C73.921 106.119 74.1483 106.036 74.3968 105.982C74.6478 105.925 74.8999 105.88 75.1532 105.847C75.4847 105.804 75.7534 105.772 75.9593 105.751C76.1677 105.727 76.3192 105.688 76.4139 105.634C76.5109 105.579 76.5595 105.484 76.5595 105.349V105.321C76.5595 104.971 76.4636 104.698 76.2718 104.504C76.0824 104.31 75.7948 104.213 75.4089 104.213C75.0088 104.213 74.6951 104.301 74.4679 104.476C74.2406 104.651 74.0808 104.838 73.9885 105.037L73.193 104.753C73.335 104.421 73.5244 104.163 73.7612 103.979C74.0003 103.792 74.2607 103.661 74.5424 103.588C74.8265 103.512 75.1059 103.474 75.3805 103.474C75.5557 103.474 75.7569 103.496 75.9842 103.538C76.2138 103.579 76.4352 103.663 76.6483 103.79C76.8637 103.918 77.0424 104.111 77.1845 104.369C77.3265 104.627 77.3975 104.973 77.3975 105.406V109H76.5595V108.261H76.5169C76.46 108.38 76.3654 108.506 76.2328 108.641C76.1002 108.776 75.9238 108.891 75.7037 108.986C75.4835 109.08 75.2148 109.128 74.8975 109.128ZM75.0254 108.375C75.3568 108.375 75.6362 108.31 75.8635 108.18C76.0931 108.049 76.2659 107.881 76.3819 107.675C76.5003 107.469 76.5595 107.253 76.5595 107.026V106.259C76.524 106.301 76.4458 106.34 76.3251 106.376C76.2067 106.409 76.0694 106.438 75.9132 106.464C75.7593 106.488 75.609 106.509 75.4622 106.528C75.3178 106.545 75.2006 106.559 75.1106 106.571C74.8928 106.599 74.6892 106.646 74.4998 106.71C74.3128 106.771 74.1613 106.865 74.0453 106.99C73.9316 107.113 73.8748 107.281 73.8748 107.494C73.8748 107.786 73.9825 108.006 74.198 108.155C74.4158 108.302 74.6916 108.375 75.0254 108.375ZM81.2994 103.545V104.256H78.4727V103.545H81.2994ZM79.2965 102.239H80.1346V107.438C80.1346 107.674 80.1689 107.852 80.2376 107.97C80.3086 108.086 80.3986 108.164 80.5075 108.205C80.6187 108.242 80.7359 108.261 80.859 108.261C80.9513 108.261 81.0271 108.257 81.0863 108.247C81.1455 108.235 81.1928 108.226 81.2283 108.219L81.3988 108.972C81.342 108.993 81.2627 109.014 81.1609 109.036C81.0591 109.059 80.93 109.071 80.7738 109.071C80.5371 109.071 80.305 109.02 80.0778 108.918C79.8529 108.817 79.6658 108.661 79.5167 108.453C79.3699 108.245 79.2965 107.982 79.2965 107.665V102.239ZM84.1651 109.128C83.8195 109.128 83.5058 109.063 83.2241 108.933C82.9424 108.8 82.7186 108.609 82.5529 108.361C82.3872 108.11 82.3043 107.807 82.3043 107.452C82.3043 107.139 82.3659 106.886 82.489 106.692C82.6121 106.495 82.7766 106.341 82.9826 106.23C83.1886 106.119 83.4158 106.036 83.6644 105.982C83.9154 105.925 84.1675 105.88 84.4208 105.847C84.7522 105.804 85.021 105.772 85.2269 105.751C85.4353 105.727 85.5868 105.688 85.6815 105.634C85.7785 105.579 85.8271 105.484 85.8271 105.349V105.321C85.8271 104.971 85.7312 104.698 85.5394 104.504C85.35 104.31 85.0624 104.213 84.6765 104.213C84.2764 104.213 83.9627 104.301 83.7354 104.476C83.5082 104.651 83.3484 104.838 83.256 105.037L82.4606 104.753C82.6026 104.421 82.792 104.163 83.0288 103.979C83.2679 103.792 83.5283 103.661 83.81 103.588C84.0941 103.512 84.3735 103.474 84.6481 103.474C84.8233 103.474 85.0245 103.496 85.2518 103.538C85.4814 103.579 85.7028 103.663 85.9158 103.79C86.1313 103.918 86.31 104.111 86.4521 104.369C86.5941 104.627 86.6651 104.973 86.6651 105.406V109H85.8271V108.261H85.7844C85.7276 108.38 85.6329 108.506 85.5004 108.641C85.3678 108.776 85.1914 108.891 84.9712 108.986C84.7511 109.08 84.4824 109.128 84.1651 109.128ZM84.293 108.375C84.6244 108.375 84.9038 108.31 85.131 108.18C85.3607 108.049 85.5335 107.881 85.6495 107.675C85.7679 107.469 85.8271 107.253 85.8271 107.026V106.259C85.7915 106.301 85.7134 106.34 85.5927 106.376C85.4743 106.409 85.337 106.438 85.1808 106.464C85.0269 106.488 84.8765 106.509 84.7298 106.528C84.5853 106.545 84.4682 106.559 84.3782 106.571C84.1604 106.599 83.9568 106.646 83.7674 106.71C83.5804 106.771 83.4289 106.865 83.3129 106.99C83.1992 107.113 83.1424 107.281 83.1424 107.494C83.1424 107.786 83.2501 108.006 83.4656 108.155C83.6834 108.302 83.9592 108.375 84.293 108.375ZM89.4448 108.006L89.388 108.389C89.3477 108.659 89.2862 108.948 89.2033 109.256C89.1228 109.563 89.0388 109.853 88.9512 110.126C88.8636 110.398 88.7914 110.615 88.7346 110.776H88.0953C88.1261 110.624 88.1664 110.424 88.2161 110.175C88.2658 109.927 88.3155 109.649 88.3652 109.341C88.4173 109.036 88.4599 108.723 88.4931 108.403L88.5357 108.006H89.4448ZM93.2987 101.727H94.3072L96.3242 105.122H96.4094L98.4265 101.727H99.435L96.8072 106.003V109H95.9265V106.003L93.2987 101.727ZM101.905 109.114C101.412 109.114 100.98 108.996 100.609 108.762C100.239 108.528 99.9505 108.2 99.7422 107.778C99.5362 107.357 99.4332 106.865 99.4332 106.301C99.4332 105.733 99.5362 105.237 99.7422 104.813C99.9505 104.389 100.239 104.06 100.609 103.826C100.98 103.592 101.412 103.474 101.905 103.474C102.397 103.474 102.828 103.592 103.197 103.826C103.569 104.06 103.858 104.389 104.064 104.813C104.272 105.237 104.376 105.733 104.376 106.301C104.376 106.865 104.272 107.357 104.064 107.778C103.858 108.2 103.569 108.528 103.197 108.762C102.828 108.996 102.397 109.114 101.905 109.114ZM101.905 108.361C102.279 108.361 102.587 108.265 102.828 108.073C103.07 107.881 103.248 107.629 103.364 107.317C103.48 107.004 103.538 106.666 103.538 106.301C103.538 105.937 103.48 105.597 103.364 105.282C103.248 104.967 103.07 104.713 102.828 104.518C102.587 104.324 102.279 104.227 101.905 104.227C101.531 104.227 101.223 104.324 100.982 104.518C100.74 104.713 100.561 104.967 100.445 105.282C100.329 105.597 100.271 105.937 100.271 106.301C100.271 106.666 100.329 107.004 100.445 107.317C100.561 107.629 100.74 107.881 100.982 108.073C101.223 108.265 101.531 108.361 101.905 108.361ZM109.093 106.77V103.545H109.931V109H109.093V108.077H109.036C108.909 108.354 108.71 108.589 108.44 108.783C108.17 108.975 107.829 109.071 107.417 109.071C107.076 109.071 106.773 108.996 106.508 108.847C106.243 108.696 106.035 108.469 105.883 108.165C105.731 107.86 105.656 107.475 105.656 107.011V103.545H106.494V106.955C106.494 107.352 106.605 107.67 106.828 107.906C107.052 108.143 107.339 108.261 107.687 108.261C107.895 108.261 108.107 108.208 108.323 108.102C108.54 107.995 108.723 107.832 108.869 107.612C109.019 107.391 109.093 107.111 109.093 106.77ZM111.466 109V103.545H112.276V104.369H112.333C112.432 104.099 112.612 103.88 112.873 103.712C113.133 103.544 113.426 103.46 113.753 103.46C113.815 103.46 113.892 103.461 113.984 103.464C114.076 103.466 114.146 103.47 114.194 103.474V104.327C114.165 104.32 114.1 104.309 113.998 104.295C113.899 104.278 113.793 104.27 113.682 104.27C113.417 104.27 113.18 104.326 112.972 104.437C112.766 104.546 112.603 104.697 112.482 104.891C112.364 105.083 112.304 105.302 112.304 105.548V109H111.466ZM123.965 104H123.085C123.033 103.747 122.941 103.524 122.811 103.332C122.683 103.141 122.527 102.98 122.343 102.849C122.16 102.717 121.958 102.617 121.735 102.551C121.513 102.485 121.281 102.452 121.039 102.452C120.599 102.452 120.2 102.563 119.843 102.786C119.487 103.008 119.204 103.336 118.994 103.769C118.785 104.202 118.681 104.734 118.681 105.364C118.681 105.993 118.785 106.525 118.994 106.958C119.204 107.391 119.487 107.719 119.843 107.942C120.2 108.164 120.599 108.276 121.039 108.276C121.281 108.276 121.513 108.242 121.735 108.176C121.958 108.11 122.16 108.012 122.343 107.881C122.527 107.749 122.683 107.587 122.811 107.395C122.941 107.201 123.033 106.978 123.085 106.727H123.965C123.899 107.099 123.778 107.432 123.603 107.725C123.428 108.019 123.21 108.268 122.95 108.474C122.689 108.678 122.397 108.833 122.073 108.94C121.751 109.046 121.406 109.099 121.039 109.099C120.419 109.099 119.867 108.948 119.384 108.645C118.901 108.342 118.521 107.911 118.244 107.352C117.968 106.794 117.829 106.131 117.829 105.364C117.829 104.597 117.968 103.934 118.244 103.375C118.521 102.816 118.901 102.385 119.384 102.082C119.867 101.779 120.419 101.628 121.039 101.628C121.406 101.628 121.751 101.681 122.073 101.788C122.397 101.894 122.689 102.05 122.95 102.256C123.21 102.46 123.428 102.709 123.603 103.002C123.778 103.293 123.899 103.626 123.965 104ZM127.491 109.114C126.998 109.114 126.566 108.996 126.195 108.762C125.825 108.528 125.536 108.2 125.328 107.778C125.122 107.357 125.019 106.865 125.019 106.301C125.019 105.733 125.122 105.237 125.328 104.813C125.536 104.389 125.825 104.06 126.195 103.826C126.566 103.592 126.998 103.474 127.491 103.474C127.983 103.474 128.414 103.592 128.783 103.826C129.155 104.06 129.444 104.389 129.65 104.813C129.858 105.237 129.962 105.733 129.962 106.301C129.962 106.865 129.858 107.357 129.65 107.778C129.444 108.2 129.155 108.528 128.783 108.762C128.414 108.996 127.983 109.114 127.491 109.114ZM127.491 108.361C127.865 108.361 128.173 108.265 128.414 108.073C128.656 107.881 128.834 107.629 128.95 107.317C129.066 107.004 129.124 106.666 129.124 106.301C129.124 105.937 129.066 105.597 128.95 105.282C128.834 104.967 128.656 104.713 128.414 104.518C128.173 104.324 127.865 104.227 127.491 104.227C127.117 104.227 126.809 104.324 126.567 104.518C126.326 104.713 126.147 104.967 126.031 105.282C125.915 105.597 125.857 105.937 125.857 106.301C125.857 106.666 125.915 107.004 126.031 107.317C126.147 107.629 126.326 107.881 126.567 108.073C126.809 108.265 127.117 108.361 127.491 108.361ZM132.08 105.719V109H131.242V103.545H132.051V104.398H132.122C132.25 104.121 132.444 103.898 132.705 103.73C132.965 103.56 133.301 103.474 133.713 103.474C134.083 103.474 134.406 103.55 134.683 103.702C134.96 103.851 135.175 104.078 135.329 104.384C135.483 104.687 135.56 105.07 135.56 105.534V109H134.722V105.591C134.722 105.162 134.61 104.829 134.388 104.589C134.165 104.348 133.86 104.227 133.472 104.227C133.204 104.227 132.965 104.285 132.754 104.401C132.546 104.517 132.382 104.687 132.261 104.909C132.14 105.132 132.08 105.402 132.08 105.719ZM139.463 103.545V104.256H136.637V103.545H139.463ZM137.461 102.239H138.299V107.438C138.299 107.674 138.333 107.852 138.402 107.97C138.473 108.086 138.563 108.164 138.672 108.205C138.783 108.242 138.9 108.261 139.023 108.261C139.115 108.261 139.191 108.257 139.25 108.247C139.31 108.235 139.357 108.226 139.392 108.219L139.563 108.972C139.506 108.993 139.427 109.014 139.325 109.036C139.223 109.059 139.094 109.071 138.938 109.071C138.701 109.071 138.469 109.02 138.242 108.918C138.017 108.817 137.83 108.661 137.681 108.453C137.534 108.245 137.461 107.982 137.461 107.665V102.239ZM140.724 109V103.545H141.534V104.369H141.591C141.69 104.099 141.87 103.88 142.13 103.712C142.391 103.544 142.684 103.46 143.011 103.46C143.073 103.46 143.15 103.461 143.242 103.464C143.334 103.466 143.404 103.47 143.451 103.474V104.327C143.423 104.32 143.358 104.309 143.256 104.295C143.157 104.278 143.051 104.27 142.94 104.27C142.675 104.27 142.438 104.326 142.23 104.437C142.024 104.546 141.86 104.697 141.74 104.891C141.621 105.083 141.562 105.302 141.562 105.548V109H140.724ZM146.495 109.114C146.002 109.114 145.57 108.996 145.199 108.762C144.829 108.528 144.54 108.2 144.332 107.778C144.126 107.357 144.023 106.865 144.023 106.301C144.023 105.733 144.126 105.237 144.332 104.813C144.54 104.389 144.829 104.06 145.199 103.826C145.57 103.592 146.002 103.474 146.495 103.474C146.987 103.474 147.418 103.592 147.787 103.826C148.159 104.06 148.448 104.389 148.654 104.813C148.862 105.237 148.966 105.733 148.966 106.301C148.966 106.865 148.862 107.357 148.654 107.778C148.448 108.2 148.159 108.528 147.787 108.762C147.418 108.996 146.987 109.114 146.495 109.114ZM146.495 108.361C146.869 108.361 147.176 108.265 147.418 108.073C147.659 107.881 147.838 107.629 147.954 107.317C148.07 107.004 148.128 106.666 148.128 106.301C148.128 105.937 148.07 105.597 147.954 105.282C147.838 104.967 147.659 104.713 147.418 104.518C147.176 104.324 146.869 104.227 146.495 104.227C146.121 104.227 145.813 104.324 145.571 104.518C145.33 104.713 145.151 104.967 145.035 105.282C144.919 105.597 144.861 105.937 144.861 106.301C144.861 106.666 144.919 107.004 145.035 107.317C145.151 107.629 145.33 107.881 145.571 108.073C145.813 108.265 146.121 108.361 146.495 108.361ZM151.084 101.727V109H150.246V101.727H151.084Z" fill="#232323"/>
<path d="M44.5661 75H40.4411V63.3636H44.6001C45.7706 63.3636 46.7782 63.5966 47.6229 64.0625C48.4676 64.5246 49.1172 65.1894 49.5717 66.0568C50.0301 66.9242 50.2592 67.9621 50.2592 69.1705C50.2592 70.3826 50.0301 71.4242 49.5717 72.2955C49.1172 73.1667 48.4638 73.8352 47.6115 74.3011C46.763 74.767 45.7479 75 44.5661 75ZM42.9013 72.892H44.4638C45.1911 72.892 45.8028 72.7633 46.299 72.5057C46.799 72.2443 47.174 71.8409 47.424 71.2955C47.6778 70.7462 47.8047 70.0379 47.8047 69.1705C47.8047 68.3106 47.6778 67.608 47.424 67.0625C47.174 66.517 46.8009 66.1155 46.3047 65.858C45.8085 65.6004 45.1967 65.4716 44.4695 65.4716H42.9013V72.892ZM54.5249 75.1648C53.968 75.1648 53.4718 75.0682 53.0362 74.875C52.6006 74.678 52.2559 74.3883 52.0021 74.0057C51.7521 73.6193 51.6271 73.1383 51.6271 72.5625C51.6271 72.0777 51.7161 71.6705 51.8942 71.3409C52.0722 71.0114 52.3146 70.7462 52.6214 70.5455C52.9283 70.3447 53.2768 70.1932 53.6669 70.0909C54.0608 69.9886 54.4737 69.9167 54.9055 69.875C55.4131 69.822 55.8222 69.7727 56.1328 69.7273C56.4434 69.678 56.6688 69.6061 56.8089 69.5114C56.9491 69.4167 57.0192 69.2765 57.0192 69.0909V69.0568C57.0192 68.697 56.9055 68.4186 56.6783 68.2216C56.4548 68.0246 56.1366 67.9261 55.7237 67.9261C55.2881 67.9261 54.9415 68.0227 54.6839 68.2159C54.4264 68.4053 54.2559 68.6439 54.1726 68.9318L51.9339 68.75C52.0476 68.2197 52.2711 67.7614 52.6044 67.375C52.9377 66.9848 53.3677 66.6856 53.8942 66.4773C54.4245 66.2652 55.0381 66.1591 55.7351 66.1591C56.2199 66.1591 56.6839 66.2159 57.1271 66.3295C57.5741 66.4432 57.9699 66.6193 58.3146 66.858C58.6631 67.0966 58.9377 67.4034 59.1385 67.7784C59.3393 68.1496 59.4396 68.5947 59.4396 69.1136V75H57.1442V73.7898H57.076C56.9358 74.0625 56.7483 74.303 56.5135 74.5114C56.2786 74.7159 55.9964 74.8769 55.6669 74.9943C55.3374 75.108 54.9567 75.1648 54.5249 75.1648ZM55.218 73.4943C55.5741 73.4943 55.8885 73.4242 56.1612 73.2841C56.4339 73.1402 56.648 72.947 56.8033 72.7045C56.9586 72.4621 57.0362 72.1875 57.0362 71.8807V70.9545C56.9605 71.0038 56.8563 71.0492 56.7237 71.0909C56.5949 71.1288 56.4491 71.1648 56.2862 71.1989C56.1233 71.2292 55.9605 71.2576 55.7976 71.2841C55.6347 71.3068 55.487 71.3277 55.3544 71.3466C55.0703 71.3883 54.8222 71.4545 54.6101 71.5455C54.398 71.6364 54.2332 71.7595 54.1158 71.9148C53.9983 72.0663 53.9396 72.2557 53.9396 72.483C53.9396 72.8125 54.0589 73.0644 54.2976 73.2386C54.54 73.4091 54.8468 73.4943 55.218 73.4943ZM65.9595 66.2727V68.0909H60.7038V66.2727H65.9595ZM61.897 64.1818H64.3175V72.3182C64.3175 72.5417 64.3516 72.7159 64.4197 72.8409C64.4879 72.9621 64.5826 73.0473 64.7038 73.0966C64.8288 73.1458 64.9728 73.1705 65.1357 73.1705C65.2493 73.1705 65.3629 73.161 65.4766 73.142C65.5902 73.1193 65.6773 73.1023 65.7379 73.0909L66.1186 74.892C65.9974 74.9299 65.8269 74.9735 65.6072 75.0227C65.3875 75.0758 65.1205 75.108 64.8061 75.1193C64.2228 75.142 63.7114 75.0644 63.272 74.8864C62.8364 74.7083 62.4974 74.4318 62.255 74.0568C62.0125 73.6818 61.8932 73.2083 61.897 72.6364V64.1818ZM70.0249 75.1648C69.468 75.1648 68.9718 75.0682 68.5362 74.875C68.1006 74.678 67.7559 74.3883 67.5021 74.0057C67.2521 73.6193 67.1271 73.1383 67.1271 72.5625C67.1271 72.0777 67.2161 71.6705 67.3942 71.3409C67.5722 71.0114 67.8146 70.7462 68.1214 70.5455C68.4283 70.3447 68.7768 70.1932 69.1669 70.0909C69.5608 69.9886 69.9737 69.9167 70.4055 69.875C70.9131 69.822 71.3222 69.7727 71.6328 69.7273C71.9434 69.678 72.1688 69.6061 72.3089 69.5114C72.4491 69.4167 72.5192 69.2765 72.5192 69.0909V69.0568C72.5192 68.697 72.4055 68.4186 72.1783 68.2216C71.9548 68.0246 71.6366 67.9261 71.2237 67.9261C70.7881 67.9261 70.4415 68.0227 70.1839 68.2159C69.9264 68.4053 69.7559 68.6439 69.6726 68.9318L67.4339 68.75C67.5476 68.2197 67.7711 67.7614 68.1044 67.375C68.4377 66.9848 68.8677 66.6856 69.3942 66.4773C69.9245 66.2652 70.5381 66.1591 71.2351 66.1591C71.7199 66.1591 72.1839 66.2159 72.6271 66.3295C73.0741 66.4432 73.4699 66.6193 73.8146 66.858C74.1631 67.0966 74.4377 67.4034 74.6385 67.7784C74.8393 68.1496 74.9396 68.5947 74.9396 69.1136V75H72.6442V73.7898H72.576C72.4358 74.0625 72.2483 74.303 72.0135 74.5114C71.7786 74.7159 71.4964 74.8769 71.1669 74.9943C70.8374 75.108 70.4567 75.1648 70.0249 75.1648ZM70.718 73.4943C71.0741 73.4943 71.3885 73.4242 71.6612 73.2841C71.9339 73.1402 72.148 72.947 72.3033 72.7045C72.4586 72.4621 72.5362 72.1875 72.5362 71.8807V70.9545C72.4605 71.0038 72.3563 71.0492 72.2237 71.0909C72.0949 71.1288 71.9491 71.1648 71.7862 71.1989C71.6233 71.2292 71.4605 71.2576 71.2976 71.2841C71.1347 71.3068 70.987 71.3277 70.8544 71.3466C70.5703 71.3883 70.3222 71.4545 70.1101 71.5455C69.898 71.6364 69.7332 71.7595 69.6158 71.9148C69.4983 72.0663 69.4396 72.2557 69.4396 72.483C69.4396 72.8125 69.5589 73.0644 69.7976 73.2386C70.04 73.4091 70.3468 73.4943 70.718 73.4943ZM88.282 67.125C88.2024 66.8485 88.0907 66.6042 87.9467 66.392C87.8028 66.1761 87.6267 65.9943 87.4183 65.8466C87.2138 65.6951 86.9789 65.5795 86.7138 65.5C86.4524 65.4205 86.1626 65.3807 85.8445 65.3807C85.2498 65.3807 84.727 65.5284 84.2763 65.8239C83.8293 66.1193 83.4808 66.5492 83.2308 67.1136C82.9808 67.6742 82.8558 68.3598 82.8558 69.1705C82.8558 69.9811 82.9789 70.6705 83.2251 71.2386C83.4714 71.8068 83.8198 72.2405 84.2706 72.5398C84.7214 72.8352 85.2536 72.983 85.8672 72.983C86.424 72.983 86.8994 72.8845 87.2933 72.6875C87.6911 72.4867 87.9941 72.2045 88.2024 71.8409C88.4145 71.4773 88.5206 71.0473 88.5206 70.5511L89.0206 70.625H86.0206V68.7727H90.8899V70.2386C90.8899 71.2614 90.674 72.1402 90.2422 72.875C89.8104 73.6061 89.2157 74.1705 88.4581 74.5682C87.7005 74.9621 86.8331 75.1591 85.8558 75.1591C84.7649 75.1591 83.8066 74.9186 82.9808 74.4375C82.1551 73.9527 81.5111 73.2652 81.049 72.375C80.5907 71.4811 80.3615 70.4205 80.3615 69.1932C80.3615 68.25 80.4979 67.4091 80.7706 66.6705C81.0471 65.928 81.4335 65.2992 81.9297 64.7841C82.4259 64.2689 83.0036 63.8769 83.6626 63.608C84.3217 63.339 85.0357 63.2045 85.8047 63.2045C86.4638 63.2045 87.0774 63.3011 87.6456 63.4943C88.2138 63.6837 88.7176 63.9527 89.157 64.3011C89.6001 64.6496 89.9619 65.0644 90.2422 65.5455C90.5225 66.0227 90.7024 66.5492 90.782 67.125H88.282ZM98.2891 71.2841V66.2727H100.71V75H98.3857V73.4148H98.2947C98.0978 73.9261 97.7701 74.3371 97.3118 74.6477C96.8572 74.9583 96.3023 75.1136 95.647 75.1136C95.0637 75.1136 94.5504 74.9811 94.1072 74.7159C93.6641 74.4508 93.3175 74.0739 93.0675 73.5852C92.8213 73.0966 92.6963 72.5114 92.6925 71.8295V66.2727H95.1129V71.3977C95.1167 71.9129 95.255 72.3201 95.5277 72.6193C95.8004 72.9186 96.166 73.0682 96.6243 73.0682C96.916 73.0682 97.1887 73.0019 97.4425 72.8693C97.6963 72.733 97.9008 72.5322 98.0561 72.267C98.2152 72.0019 98.2929 71.6742 98.2891 71.2841ZM105.134 75.1648C104.577 75.1648 104.081 75.0682 103.646 74.875C103.21 74.678 102.865 74.3883 102.612 74.0057C102.362 73.6193 102.237 73.1383 102.237 72.5625C102.237 72.0777 102.326 71.6705 102.504 71.3409C102.682 71.0114 102.924 70.7462 103.231 70.5455C103.538 70.3447 103.886 70.1932 104.276 70.0909C104.67 69.9886 105.083 69.9167 105.515 69.875C106.022 69.822 106.432 69.7727 106.742 69.7273C107.053 69.678 107.278 69.6061 107.418 69.5114C107.558 69.4167 107.629 69.2765 107.629 69.0909V69.0568C107.629 68.697 107.515 68.4186 107.288 68.2216C107.064 68.0246 106.746 67.9261 106.333 67.9261C105.897 67.9261 105.551 68.0227 105.293 68.2159C105.036 68.4053 104.865 68.6439 104.782 68.9318L102.543 68.75C102.657 68.2197 102.88 67.7614 103.214 67.375C103.547 66.9848 103.977 66.6856 104.504 66.4773C105.034 66.2652 105.647 66.1591 106.344 66.1591C106.829 66.1591 107.293 66.2159 107.737 66.3295C108.183 66.4432 108.579 66.6193 108.924 66.858C109.272 67.0966 109.547 67.4034 109.748 67.7784C109.949 68.1496 110.049 68.5947 110.049 69.1136V75H107.754V73.7898H107.685C107.545 74.0625 107.358 74.303 107.123 74.5114C106.888 74.7159 106.606 74.8769 106.276 74.9943C105.947 75.108 105.566 75.1648 105.134 75.1648ZM105.827 73.4943C106.183 73.4943 106.498 73.4242 106.771 73.2841C107.043 73.1402 107.257 72.947 107.413 72.7045C107.568 72.4621 107.646 72.1875 107.646 71.8807V70.9545C107.57 71.0038 107.466 71.0492 107.333 71.0909C107.204 71.1288 107.058 71.1648 106.896 71.1989C106.733 71.2292 106.57 71.2576 106.407 71.2841C106.244 71.3068 106.096 71.3277 105.964 71.3466C105.68 71.3883 105.432 71.4545 105.219 71.5455C105.007 71.6364 104.843 71.7595 104.725 71.9148C104.608 72.0663 104.549 72.2557 104.549 72.483C104.549 72.8125 104.668 73.0644 104.907 73.2386C105.149 73.4091 105.456 73.4943 105.827 73.4943ZM111.927 75V66.2727H114.273V67.7955H114.364C114.523 67.2538 114.79 66.8447 115.165 66.5682C115.54 66.2879 115.972 66.1477 116.461 66.1477C116.582 66.1477 116.713 66.1553 116.853 66.1705C116.993 66.1856 117.116 66.2064 117.222 66.233V68.3807C117.109 68.3466 116.951 68.3163 116.751 68.2898C116.55 68.2633 116.366 68.25 116.2 68.25C115.844 68.25 115.525 68.3277 115.245 68.483C114.969 68.6345 114.749 68.8466 114.586 69.1193C114.427 69.392 114.347 69.7064 114.347 70.0625V75H111.927ZM121.283 75.142C120.621 75.142 120.02 74.9716 119.482 74.6307C118.948 74.286 118.524 73.7803 118.21 73.1136C117.899 72.4432 117.744 71.6212 117.744 70.6477C117.744 69.6477 117.905 68.8163 118.227 68.1534C118.549 67.4867 118.977 66.9886 119.511 66.6591C120.049 66.3258 120.638 66.1591 121.278 66.1591C121.766 66.1591 122.174 66.2424 122.499 66.4091C122.829 66.572 123.094 66.7765 123.295 67.0227C123.499 67.2652 123.655 67.5038 123.761 67.7386H123.835V63.3636H126.249V75H123.863V73.6023H123.761C123.647 73.8447 123.486 74.0852 123.278 74.3239C123.073 74.5587 122.806 74.7538 122.477 74.9091C122.151 75.0644 121.753 75.142 121.283 75.142ZM122.05 73.2159C122.441 73.2159 122.77 73.1098 123.039 72.8977C123.312 72.6818 123.52 72.3807 123.664 71.9943C123.812 71.608 123.886 71.1553 123.886 70.6364C123.886 70.1174 123.814 69.6667 123.67 69.2841C123.526 68.9015 123.317 68.6061 123.045 68.3977C122.772 68.1894 122.441 68.0852 122.05 68.0852C121.653 68.0852 121.317 68.1932 121.045 68.4091C120.772 68.625 120.566 68.9242 120.425 69.3068C120.285 69.6894 120.215 70.1326 120.215 70.6364C120.215 71.1439 120.285 71.5928 120.425 71.983C120.569 72.3693 120.776 72.6723 121.045 72.892C121.317 73.108 121.653 73.2159 122.05 73.2159ZM128.239 75V66.2727H130.66V75H128.239ZM129.455 65.1477C129.095 65.1477 128.787 65.0284 128.529 64.7898C128.275 64.5473 128.148 64.2576 128.148 63.9205C128.148 63.5871 128.275 63.3011 128.529 63.0625C128.787 62.8201 129.095 62.6989 129.455 62.6989C129.815 62.6989 130.122 62.8201 130.376 63.0625C130.633 63.3011 130.762 63.5871 130.762 63.9205C130.762 64.2576 130.633 64.5473 130.376 64.7898C130.122 65.0284 129.815 65.1477 129.455 65.1477ZM135.087 75.1648C134.531 75.1648 134.034 75.0682 133.599 74.875C133.163 74.678 132.818 74.3883 132.565 74.0057C132.315 73.6193 132.19 73.1383 132.19 72.5625C132.19 72.0777 132.279 71.6705 132.457 71.3409C132.635 71.0114 132.877 70.7462 133.184 70.5455C133.491 70.3447 133.839 70.1932 134.229 70.0909C134.623 69.9886 135.036 69.9167 135.468 69.875C135.976 69.822 136.385 69.7727 136.695 69.7273C137.006 69.678 137.231 69.6061 137.371 69.5114C137.512 69.4167 137.582 69.2765 137.582 69.0909V69.0568C137.582 68.697 137.468 68.4186 137.241 68.2216C137.017 68.0246 136.699 67.9261 136.286 67.9261C135.851 67.9261 135.504 68.0227 135.246 68.2159C134.989 68.4053 134.818 68.6439 134.735 68.9318L132.496 68.75C132.61 68.2197 132.834 67.7614 133.167 67.375C133.5 66.9848 133.93 66.6856 134.457 66.4773C134.987 66.2652 135.601 66.1591 136.298 66.1591C136.782 66.1591 137.246 66.2159 137.69 66.3295C138.137 66.4432 138.532 66.6193 138.877 66.858C139.226 67.0966 139.5 67.4034 139.701 67.7784C139.902 68.1496 140.002 68.5947 140.002 69.1136V75H137.707V73.7898H137.638C137.498 74.0625 137.311 74.303 137.076 74.5114C136.841 74.7159 136.559 74.8769 136.229 74.9943C135.9 75.108 135.519 75.1648 135.087 75.1648ZM135.781 73.4943C136.137 73.4943 136.451 73.4242 136.724 73.2841C136.996 73.1402 137.21 72.947 137.366 72.7045C137.521 72.4621 137.599 72.1875 137.599 71.8807V70.9545C137.523 71.0038 137.419 71.0492 137.286 71.0909C137.157 71.1288 137.012 71.1648 136.849 71.1989C136.686 71.2292 136.523 71.2576 136.36 71.2841C136.197 71.3068 136.049 71.3277 135.917 71.3466C135.633 71.3883 135.385 71.4545 135.173 71.5455C134.96 71.6364 134.796 71.7595 134.678 71.9148C134.561 72.0663 134.502 72.2557 134.502 72.483C134.502 72.8125 134.621 73.0644 134.86 73.2386C135.103 73.4091 135.409 73.4943 135.781 73.4943ZM144.3 69.9545V75H141.88V66.2727H144.187V67.8125H144.289C144.482 67.3049 144.806 66.9034 145.261 66.608C145.715 66.3087 146.266 66.1591 146.914 66.1591C147.52 66.1591 148.049 66.2917 148.499 66.5568C148.95 66.822 149.3 67.2008 149.55 67.6932C149.8 68.1818 149.925 68.7652 149.925 69.4432V75H147.505V69.875C147.509 69.3409 147.372 68.9242 147.096 68.625C146.819 68.322 146.439 68.1705 145.954 68.1705C145.628 68.1705 145.34 68.2405 145.09 68.3807C144.844 68.5208 144.651 68.7254 144.511 68.9943C144.374 69.2595 144.304 69.5795 144.3 69.9545ZM76.826 84.392V82.3636H86.3828V84.392H82.8203V94H80.3885V84.392H76.826ZM87.005 94V85.2727H89.3516V86.7955H89.4425C89.6016 86.2538 89.8686 85.8447 90.2436 85.5682C90.6186 85.2879 91.0504 85.1477 91.5391 85.1477C91.6603 85.1477 91.791 85.1553 91.9311 85.1705C92.0713 85.1856 92.1944 85.2064 92.3004 85.233V87.3807C92.1868 87.3466 92.0296 87.3163 91.8288 87.2898C91.6281 87.2633 91.4444 87.25 91.2777 87.25C90.9216 87.25 90.6035 87.3277 90.3232 87.483C90.0466 87.6345 89.8269 87.8466 89.6641 88.1193C89.505 88.392 89.4254 88.7064 89.4254 89.0625V94H87.005ZM99.1484 90.2841V85.2727H101.569V94H99.245V92.4148H99.1541C98.9571 92.9261 98.6295 93.3371 98.1712 93.6477C97.7166 93.9583 97.1617 94.1136 96.5064 94.1136C95.9231 94.1136 95.4098 93.9811 94.9666 93.7159C94.5234 93.4508 94.1768 93.0739 93.9268 92.5852C93.6806 92.0966 93.5556 91.5114 93.5518 90.8295V85.2727H95.9723V90.3977C95.9761 90.9129 96.1143 91.3201 96.3871 91.6193C96.6598 91.9186 97.0253 92.0682 97.4837 92.0682C97.7753 92.0682 98.0481 92.0019 98.3018 91.8693C98.5556 91.733 98.7602 91.5322 98.9155 91.267C99.0746 91.0019 99.1522 90.6742 99.1484 90.2841ZM110.766 87.7614L108.55 87.8977C108.513 87.7083 108.431 87.5379 108.306 87.3864C108.181 87.2311 108.016 87.108 107.812 87.017C107.611 86.9223 107.371 86.875 107.09 86.875C106.715 86.875 106.399 86.9545 106.141 87.1136C105.884 87.2689 105.755 87.4773 105.755 87.7386C105.755 87.947 105.838 88.1231 106.005 88.267C106.172 88.411 106.458 88.5265 106.863 88.6136L108.442 88.9318C109.291 89.1061 109.924 89.3864 110.34 89.7727C110.757 90.1591 110.965 90.6667 110.965 91.2955C110.965 91.8674 110.797 92.3693 110.46 92.8011C110.126 93.233 109.668 93.5701 109.085 93.8125C108.505 94.0511 107.836 94.1705 107.079 94.1705C105.924 94.1705 105.003 93.9299 104.317 93.4489C103.636 92.964 103.236 92.3049 103.119 91.4716L105.499 91.3466C105.571 91.6989 105.746 91.9678 106.022 92.1534C106.299 92.3352 106.653 92.4261 107.085 92.4261C107.509 92.4261 107.85 92.3447 108.107 92.1818C108.369 92.0152 108.501 91.8011 108.505 91.5398C108.501 91.3201 108.408 91.1402 108.227 91C108.045 90.8561 107.764 90.7462 107.386 90.6705L105.874 90.3693C105.022 90.1989 104.388 89.9034 103.971 89.483C103.558 89.0625 103.352 88.5265 103.352 87.875C103.352 87.3144 103.503 86.8314 103.806 86.4261C104.113 86.0208 104.543 85.7083 105.096 85.4886C105.653 85.2689 106.304 85.1591 107.05 85.1591C108.153 85.1591 109.02 85.392 109.653 85.858C110.289 86.3239 110.66 86.9583 110.766 87.7614ZM117.131 85.2727V87.0909H111.876V85.2727H117.131ZM113.069 83.1818H115.489V91.3182C115.489 91.5417 115.523 91.7159 115.592 91.8409C115.66 91.9621 115.754 92.0473 115.876 92.0966C116.001 92.1458 116.145 92.1705 116.308 92.1705C116.421 92.1705 116.535 92.161 116.648 92.142C116.762 92.1193 116.849 92.1023 116.91 92.0909L117.29 93.892C117.169 93.9299 116.999 93.9735 116.779 94.0227C116.559 94.0758 116.292 94.108 115.978 94.1193C115.395 94.142 114.883 94.0644 114.444 93.8864C114.008 93.7083 113.669 93.4318 113.427 93.0568C113.184 92.6818 113.065 92.2083 113.069 91.6364V83.1818Z" fill="#1E1E1E"/>
<path d="M41.4059 25.7456C39.6013 25.7456 38.1341 27.2133 38.1341 29.017C38.1341 30.8212 39.6017 32.2884 41.4059 32.2884C43.2097 32.2884 44.6773 30.8212 44.6773 29.017C44.6773 27.2133 43.2097 25.7456 41.4059 25.7456Z" fill="#3758F9"/>
<path d="M70.5153 15.4688H71.0938V15H65.8166H64.8298H28.9062V43.125H71.0938V42.6562H70.5153C70.2561 42.6562 70.1562 42.4083 70.1562 42.1495V38.3995C70.1562 38.1408 70.2561 37.9688 70.5153 37.9688H71.0938V20.1562H70.5153C70.2561 20.1562 70.1562 19.8863 70.1562 19.6275V15.8775C70.1562 15.6188 70.2561 15.4688 70.5153 15.4688ZM33.5938 35.625C33.5938 36.1425 33.1737 36.5625 32.6562 36.5625H31.7188C31.2013 36.5625 30.7812 36.1425 30.7812 35.625V22.5C30.7812 21.9825 31.2013 21.5625 31.7188 21.5625H32.6562C33.1737 21.5625 33.5938 21.9825 33.5938 22.5V35.625ZM41.4059 35.1005C38.0506 35.1005 35.3216 32.3714 35.3216 29.0166C35.3216 25.6617 38.0506 22.9327 41.4059 22.9327C44.7603 22.9327 47.4898 25.6617 47.4898 29.0166C47.4898 32.3714 44.7603 35.1005 41.4059 35.1005Z" fill="#3758F9"/>
<path d="M73.7459 6.5625H25.9728C22.6128 6.5625 20 9.25031 20 12.6108V45.4228C20 48.6258 22.4858 51.2531 25.6278 51.4927C25.6278 51.5011 25.625 51.5086 25.625 51.5166V52.447C25.625 52.9641 25.9255 53.437 26.4416 53.437H29.4097C29.9272 53.437 30.3125 52.9636 30.3125 52.447V51.5625H70.1562V52.4475C70.1562 52.9645 70.4464 53.4375 70.963 53.4375H73.9334C74.4509 53.4375 74.8438 52.9641 74.8438 52.4475V51.517C74.8438 51.4894 74.8433 51.4641 74.8405 51.4373C77.7556 50.9831 80 48.4631 80 45.4233V12.6108C80 9.25031 77.1059 6.5625 73.7459 6.5625ZM74.8438 19.6275C74.8438 19.8863 74.4636 20.1562 74.2048 20.1562H73.9062V37.9688H74.2048C74.4641 37.9688 74.8438 38.1408 74.8438 38.3995V42.1495C74.8438 42.4083 74.4636 42.6562 74.2048 42.6562H73.9062V44.4853C73.9062 45.2616 73.1361 45.9375 72.3598 45.9375H27.3598C26.5827 45.9375 26.0938 45.262 26.0938 44.4853V31.808C24.6875 31.5736 23.7711 30.4233 23.7711 29.0367C23.7711 27.6497 24.6875 26.4998 26.0938 26.2655V13.5483C26.0938 12.7716 26.5827 12.1875 27.3598 12.1875H64.8298H65.8166H72.3598C73.1361 12.1875 73.9062 12.7716 73.9062 13.5483V15.4688H74.2048C74.4641 15.4688 74.8438 15.6188 74.8438 15.8775V19.6275Z" fill="#3758F9"/>
</svg>
