<svg width="230" height="133" viewBox="0 0 230 133" fill="none" xmlns="http://www.w3.org/2000/svg">
<path d="M122.095 43.3874H112.814V17.2056H122.172C124.806 17.2056 127.073 17.7297 128.973 18.778C130.874 19.8178 132.336 21.3135 133.358 23.2652C134.39 25.2169 134.905 27.5522 134.905 30.2709C134.905 32.9982 134.39 35.3419 133.358 37.3022C132.336 39.2624 130.865 40.7667 128.948 41.8149C127.039 42.8632 124.755 43.3874 122.095 43.3874ZM118.35 38.6445H121.865C123.502 38.6445 124.878 38.3547 125.995 37.7752C127.12 37.1871 127.963 36.2794 128.526 35.0522C129.097 33.8164 129.382 32.2226 129.382 30.2709C129.382 28.3363 129.097 26.7553 128.526 25.528C127.963 24.3007 127.124 23.3973 126.007 22.8178C124.891 22.2382 123.515 21.9485 121.878 21.9485H118.35V38.6445ZM156.366 25.6686C156.187 25.0465 155.936 24.4968 155.612 24.0195C155.288 23.5337 154.892 23.1246 154.423 22.7922C153.963 22.4513 153.435 22.1914 152.838 22.0124C152.25 21.8334 151.598 21.7439 150.882 21.7439C149.544 21.7439 148.368 22.0763 147.354 22.7411C146.348 23.4059 145.564 24.3732 145.001 25.6431C144.439 26.9044 144.158 28.447 144.158 30.2709C144.158 32.0948 144.435 33.6459 144.989 34.9243C145.543 36.2027 146.327 37.1786 147.341 37.8519C148.355 38.5167 149.553 38.849 150.933 38.849C152.186 38.849 153.256 38.6274 154.142 38.1843C155.037 37.7326 155.719 37.0976 156.187 36.2794C156.665 35.4613 156.903 34.4939 156.903 33.3774L158.028 33.5436H151.278V29.376H162.234V32.6743C162.234 34.9755 161.749 36.9527 160.777 38.6061C159.805 40.251 158.467 41.5209 156.763 42.4158C155.058 43.3022 153.106 43.7453 150.908 43.7453C148.453 43.7453 146.297 43.2042 144.439 42.1218C142.581 41.0309 141.132 39.484 140.092 37.4811C139.061 35.4698 138.545 33.0834 138.545 30.322C138.545 28.1999 138.852 26.3078 139.466 24.6459C140.088 22.9755 140.957 21.5607 142.074 20.4016C143.19 19.2425 144.49 18.3604 145.973 17.7553C147.456 17.1502 149.062 16.8476 150.793 16.8476C152.276 16.8476 153.656 17.0649 154.935 17.4996C156.213 17.9257 157.347 18.5309 158.335 19.3149C159.332 20.099 160.146 21.0323 160.777 22.1147C161.408 23.1885 161.812 24.3732 161.991 25.6686H156.366ZM164.27 21.7695V17.2056H185.773V21.7695H177.757V43.3874H172.286V21.7695H164.27Z" fill="#198754"/>
<path d="M59.3113 121.349H60.3199L62.3369 124.744H62.4221L64.4392 121.349H65.4477L62.8199 125.624V128.622H61.9392V125.624L59.3113 121.349ZM67.9175 128.735C67.4251 128.735 66.993 128.618 66.6213 128.384C66.252 128.149 65.9632 127.821 65.7549 127.4C65.5489 126.979 65.4459 126.486 65.4459 125.923C65.4459 125.355 65.5489 124.859 65.7549 124.435C65.9632 124.011 66.252 123.682 66.6213 123.448C66.993 123.213 67.4251 123.096 67.9175 123.096C68.4099 123.096 68.8408 123.213 69.2101 123.448C69.5818 123.682 69.8706 124.011 70.0766 124.435C70.2849 124.859 70.3891 125.355 70.3891 125.923C70.3891 126.486 70.2849 126.979 70.0766 127.4C69.8706 127.821 69.5818 128.149 69.2101 128.384C68.8408 128.618 68.4099 128.735 67.9175 128.735ZM67.9175 127.982C68.2916 127.982 68.5993 127.887 68.8408 127.695C69.0823 127.503 69.261 127.251 69.377 126.938C69.493 126.626 69.551 126.287 69.551 125.923C69.551 125.558 69.493 125.218 69.377 124.904C69.261 124.589 69.0823 124.334 68.8408 124.14C68.5993 123.946 68.2916 123.849 67.9175 123.849C67.5435 123.849 67.2357 123.946 66.9942 124.14C66.7527 124.334 66.574 124.589 66.458 124.904C66.342 125.218 66.284 125.558 66.284 125.923C66.284 126.287 66.342 126.626 66.458 126.938C66.574 127.251 66.7527 127.503 66.9942 127.695C67.2357 127.887 67.5435 127.982 67.9175 127.982ZM75.1059 126.391V123.167H75.944V128.622H75.1059V127.698H75.0491C74.9212 127.975 74.7224 128.211 74.4525 128.405C74.1826 128.597 73.8417 128.693 73.4298 128.693C73.0889 128.693 72.7858 128.618 72.5207 128.469C72.2555 128.317 72.0472 128.09 71.8957 127.787C71.7442 127.482 71.6684 127.097 71.6684 126.633V123.167H72.5065V126.576C72.5065 126.974 72.6177 127.291 72.8403 127.528C73.0652 127.765 73.3516 127.883 73.6996 127.883C73.908 127.883 74.1199 127.83 74.3353 127.723C74.5531 127.617 74.7354 127.453 74.8822 127.233C75.0313 127.013 75.1059 126.732 75.1059 126.391ZM77.4789 128.622V123.167H78.2886V123.991H78.3454C78.4449 123.721 78.6248 123.502 78.8852 123.334C79.1456 123.166 79.4392 123.082 79.7659 123.082C79.8274 123.082 79.9044 123.083 79.9967 123.085C80.089 123.088 80.1589 123.091 80.2062 123.096V123.948C80.1778 123.941 80.1127 123.931 80.0109 123.916C79.9115 123.9 79.8061 123.891 79.6949 123.891C79.4297 123.891 79.193 123.947 78.9846 124.058C78.7787 124.167 78.6153 124.319 78.4946 124.513C78.3762 124.705 78.317 124.924 78.317 125.17V128.622H77.4789ZM86.3701 128.622H84.1258V121.349H86.4695C87.175 121.349 87.7787 121.494 88.2806 121.786C88.7825 122.075 89.1672 122.49 89.4347 123.032C89.7023 123.572 89.836 124.218 89.836 124.971C89.836 125.729 89.7011 126.381 89.4312 126.928C89.1613 127.472 88.7683 127.891 88.2522 128.185C87.7361 128.476 87.1087 128.622 86.3701 128.622ZM85.0065 127.84H86.3133C86.9146 127.84 87.413 127.724 87.8083 127.492C88.2037 127.26 88.4984 126.93 88.6925 126.502C88.8867 126.073 88.9837 125.563 88.9837 124.971C88.9837 124.384 88.8879 123.878 88.6961 123.455C88.5043 123.029 88.2179 122.702 87.8367 122.475C87.4556 122.245 86.9809 122.13 86.4127 122.13H85.0065V127.84ZM92.8048 128.749C92.4591 128.749 92.1454 128.684 91.8637 128.554C91.582 128.422 91.3583 128.231 91.1925 127.982C91.0268 127.731 90.944 127.428 90.944 127.073C90.944 126.761 91.0055 126.508 91.1286 126.313C91.2517 126.117 91.4163 125.963 91.6222 125.852C91.8282 125.74 92.0555 125.658 92.3041 125.603C92.555 125.546 92.8071 125.501 93.0604 125.468C93.3919 125.426 93.6606 125.394 93.8666 125.372C94.0749 125.349 94.2264 125.31 94.3211 125.255C94.4182 125.201 94.4667 125.106 94.4667 124.971V124.943C94.4667 124.592 94.3708 124.32 94.1791 124.126C93.9897 123.932 93.702 123.835 93.3161 123.835C92.916 123.835 92.6023 123.922 92.3751 124.097C92.1478 124.273 91.988 124.46 91.8957 124.659L91.1002 124.374C91.2423 124.043 91.4317 123.785 91.6684 123.6C91.9075 123.413 92.1679 123.283 92.4496 123.21C92.7337 123.134 93.0131 123.096 93.2877 123.096C93.4629 123.096 93.6641 123.117 93.8914 123.16C94.121 123.2 94.3424 123.284 94.5555 123.412C94.7709 123.54 94.9496 123.733 95.0917 123.991C95.2337 124.249 95.3048 124.595 95.3048 125.028V128.622H94.4667V127.883H94.4241C94.3673 128.001 94.2726 128.128 94.14 128.263C94.0074 128.398 93.831 128.513 93.6109 128.607C93.3907 128.702 93.122 128.749 92.8048 128.749ZM92.9326 127.997C93.264 127.997 93.5434 127.932 93.7707 127.801C94.0003 127.671 94.1731 127.503 94.2891 127.297C94.4075 127.091 94.4667 126.874 94.4667 126.647V125.88C94.4312 125.923 94.3531 125.962 94.2323 125.997C94.1139 126.03 93.9766 126.06 93.8204 126.086C93.6665 126.11 93.5162 126.131 93.3694 126.15C93.225 126.167 93.1078 126.181 93.0178 126.193C92.8 126.221 92.5964 126.267 92.407 126.331C92.22 126.393 92.0685 126.486 91.9525 126.612C91.8389 126.735 91.782 126.903 91.782 127.116C91.782 127.407 91.8898 127.627 92.1052 127.776C92.323 127.923 92.5988 127.997 92.9326 127.997ZM99.2066 123.167V123.877H96.3799V123.167H99.2066ZM97.2037 121.86H98.0418V127.059C98.0418 127.296 98.0761 127.473 98.1448 127.592C98.2158 127.708 98.3058 127.786 98.4147 127.826C98.5259 127.864 98.6431 127.883 98.7662 127.883C98.8586 127.883 98.9343 127.878 98.9935 127.869C99.0527 127.857 99.1 127.847 99.1355 127.84L99.306 128.593C99.2492 128.615 99.1699 128.636 99.0681 128.657C98.9663 128.681 98.8373 128.693 98.681 128.693C98.4443 128.693 98.2123 128.642 97.985 128.54C97.7601 128.438 97.573 128.283 97.4239 128.075C97.2771 127.866 97.2037 127.604 97.2037 127.286V121.86ZM102.072 128.749C101.727 128.749 101.413 128.684 101.131 128.554C100.85 128.422 100.626 128.231 100.46 127.982C100.294 127.731 100.212 127.428 100.212 127.073C100.212 126.761 100.273 126.508 100.396 126.313C100.519 126.117 100.684 125.963 100.89 125.852C101.096 125.74 101.323 125.658 101.572 125.603C101.823 125.546 102.075 125.501 102.328 125.468C102.659 125.426 102.928 125.394 103.134 125.372C103.342 125.349 103.494 125.31 103.589 125.255C103.686 125.201 103.734 125.106 103.734 124.971V124.943C103.734 124.592 103.638 124.32 103.447 124.126C103.257 123.932 102.97 123.835 102.584 123.835C102.184 123.835 101.87 123.922 101.643 124.097C101.415 124.273 101.256 124.46 101.163 124.659L100.368 124.374C100.51 124.043 100.699 123.785 100.936 123.6C101.175 123.413 101.436 123.283 101.717 123.21C102.001 123.134 102.281 123.096 102.555 123.096C102.73 123.096 102.932 123.117 103.159 123.16C103.389 123.2 103.61 123.284 103.823 123.412C104.038 123.54 104.217 123.733 104.359 123.991C104.501 124.249 104.572 124.595 104.572 125.028V128.622H103.734V127.883H103.692C103.635 128.001 103.54 128.128 103.408 128.263C103.275 128.398 103.099 128.513 102.878 128.607C102.658 128.702 102.39 128.749 102.072 128.749ZM102.2 127.997C102.532 127.997 102.811 127.932 103.038 127.801C103.268 127.671 103.441 127.503 103.557 127.297C103.675 127.091 103.734 126.874 103.734 126.647V125.88C103.699 125.923 103.621 125.962 103.5 125.997C103.382 126.03 103.244 126.06 103.088 126.086C102.934 126.11 102.784 126.131 102.637 126.15C102.493 126.167 102.375 126.181 102.285 126.193C102.068 126.221 101.864 126.267 101.675 126.331C101.488 126.393 101.336 126.486 101.22 126.612C101.106 126.735 101.05 126.903 101.05 127.116C101.05 127.407 101.157 127.627 101.373 127.776C101.591 127.923 101.866 127.997 102.2 127.997ZM107.352 127.627L107.295 128.011C107.255 128.281 107.193 128.57 107.111 128.877C107.03 129.185 106.946 129.475 106.858 129.747C106.771 130.02 106.699 130.236 106.642 130.397H106.003C106.033 130.246 106.074 130.046 106.123 129.797C106.173 129.548 106.223 129.27 106.272 128.963C106.325 128.657 106.367 128.345 106.4 128.025L106.443 127.627H107.352ZM111.206 121.349H112.214L114.231 124.744H114.317L116.334 121.349H117.342L114.714 125.624V128.622H113.834V125.624L111.206 121.349ZM119.812 128.735C119.32 128.735 118.888 128.618 118.516 128.384C118.147 128.149 117.858 127.821 117.649 127.4C117.443 126.979 117.34 126.486 117.34 125.923C117.34 125.355 117.443 124.859 117.649 124.435C117.858 124.011 118.147 123.682 118.516 123.448C118.888 123.213 119.32 123.096 119.812 123.096C120.304 123.096 120.735 123.213 121.105 123.448C121.476 123.682 121.765 124.011 121.971 124.435C122.179 124.859 122.284 125.355 122.284 125.923C122.284 126.486 122.179 126.979 121.971 127.4C121.765 127.821 121.476 128.149 121.105 128.384C120.735 128.618 120.304 128.735 119.812 128.735ZM119.812 127.982C120.186 127.982 120.494 127.887 120.735 127.695C120.977 127.503 121.156 127.251 121.272 126.938C121.388 126.626 121.446 126.287 121.446 125.923C121.446 125.558 121.388 125.218 121.272 124.904C121.156 124.589 120.977 124.334 120.735 124.14C120.494 123.946 120.186 123.849 119.812 123.849C119.438 123.849 119.13 123.946 118.889 124.14C118.647 124.334 118.469 124.589 118.353 124.904C118.237 125.218 118.179 125.558 118.179 125.923C118.179 126.287 118.237 126.626 118.353 126.938C118.469 127.251 118.647 127.503 118.889 127.695C119.13 127.887 119.438 127.982 119.812 127.982ZM127 126.391V123.167H127.838V128.622H127V127.698H126.944C126.816 127.975 126.617 128.211 126.347 128.405C126.077 128.597 125.736 128.693 125.324 128.693C124.983 128.693 124.68 128.618 124.415 128.469C124.15 128.317 123.942 128.09 123.79 127.787C123.639 127.482 123.563 127.097 123.563 126.633V123.167H124.401V126.576C124.401 126.974 124.512 127.291 124.735 127.528C124.96 127.765 125.246 127.883 125.594 127.883C125.803 127.883 126.014 127.83 126.23 127.723C126.448 127.617 126.63 127.453 126.777 127.233C126.926 127.013 127 126.732 127 126.391ZM129.373 128.622V123.167H130.183V123.991H130.24C130.339 123.721 130.519 123.502 130.78 123.334C131.04 123.166 131.334 123.082 131.66 123.082C131.722 123.082 131.799 123.083 131.891 123.085C131.984 123.088 132.053 123.091 132.101 123.096V123.948C132.072 123.941 132.007 123.931 131.905 123.916C131.806 123.9 131.701 123.891 131.589 123.891C131.324 123.891 131.087 123.947 130.879 124.058C130.673 124.167 130.51 124.319 130.389 124.513C130.271 124.705 130.212 124.924 130.212 125.17V128.622H129.373ZM141.873 123.622H140.992C140.94 123.368 140.849 123.146 140.718 122.954C140.591 122.762 140.434 122.601 140.25 122.471C140.067 122.338 139.865 122.239 139.642 122.173C139.42 122.106 139.188 122.073 138.946 122.073C138.506 122.073 138.107 122.185 137.75 122.407C137.395 122.63 137.112 122.958 136.901 123.391C136.693 123.824 136.588 124.356 136.588 124.985C136.588 125.615 136.693 126.146 136.901 126.58C137.112 127.013 137.395 127.341 137.75 127.563C138.107 127.786 138.506 127.897 138.946 127.897C139.188 127.897 139.42 127.864 139.642 127.798C139.865 127.731 140.067 127.633 140.25 127.503C140.434 127.37 140.591 127.208 140.718 127.016C140.849 126.822 140.94 126.6 140.992 126.349H141.873C141.806 126.721 141.686 127.053 141.51 127.347C141.335 127.64 141.117 127.89 140.857 128.096C140.597 128.3 140.304 128.455 139.98 128.561C139.658 128.668 139.313 128.721 138.946 128.721C138.326 128.721 137.775 128.57 137.292 128.266C136.809 127.963 136.429 127.533 136.152 126.974C135.875 126.415 135.736 125.752 135.736 124.985C135.736 124.218 135.875 123.555 136.152 122.997C136.429 122.438 136.809 122.007 137.292 121.704C137.775 121.401 138.326 121.249 138.946 121.249C139.313 121.249 139.658 121.303 139.98 121.409C140.304 121.516 140.597 121.672 140.857 121.878C141.117 122.082 141.335 122.33 141.51 122.624C141.686 122.915 141.806 123.248 141.873 123.622ZM145.398 128.735C144.906 128.735 144.473 128.618 144.102 128.384C143.732 128.149 143.444 127.821 143.235 127.4C143.029 126.979 142.926 126.486 142.926 125.923C142.926 125.355 143.029 124.859 143.235 124.435C143.444 124.011 143.732 123.682 144.102 123.448C144.473 123.213 144.906 123.096 145.398 123.096C145.89 123.096 146.321 123.213 146.691 123.448C147.062 123.682 147.351 124.011 147.557 124.435C147.765 124.859 147.87 125.355 147.87 125.923C147.87 126.486 147.765 126.979 147.557 127.4C147.351 127.821 147.062 128.149 146.691 128.384C146.321 128.618 145.89 128.735 145.398 128.735ZM145.398 127.982C145.772 127.982 146.08 127.887 146.321 127.695C146.563 127.503 146.741 127.251 146.857 126.938C146.973 126.626 147.032 126.287 147.032 125.923C147.032 125.558 146.973 125.218 146.857 124.904C146.741 124.589 146.563 124.334 146.321 124.14C146.08 123.946 145.772 123.849 145.398 123.849C145.024 123.849 144.716 123.946 144.475 124.14C144.233 124.334 144.054 124.589 143.938 124.904C143.822 125.218 143.764 125.558 143.764 125.923C143.764 126.287 143.822 126.626 143.938 126.938C144.054 127.251 144.233 127.503 144.475 127.695C144.716 127.887 145.024 127.982 145.398 127.982ZM149.987 125.34V128.622H149.149V123.167H149.959V124.019H150.03C150.157 123.742 150.352 123.52 150.612 123.352C150.872 123.181 151.209 123.096 151.62 123.096C151.99 123.096 152.313 123.172 152.59 123.323C152.867 123.472 153.082 123.7 153.236 124.005C153.39 124.308 153.467 124.692 153.467 125.156V128.622H152.629V125.213C152.629 124.784 152.518 124.45 152.295 124.211C152.073 123.97 151.767 123.849 151.379 123.849C151.111 123.849 150.872 123.907 150.662 124.023C150.453 124.139 150.289 124.308 150.168 124.531C150.047 124.753 149.987 125.023 149.987 125.34ZM157.371 123.167V123.877H154.544V123.167H157.371ZM155.368 121.86H156.206V127.059C156.206 127.296 156.24 127.473 156.309 127.592C156.38 127.708 156.47 127.786 156.579 127.826C156.69 127.864 156.807 127.883 156.93 127.883C157.023 127.883 157.098 127.878 157.158 127.869C157.217 127.857 157.264 127.847 157.3 127.84L157.47 128.593C157.413 128.615 157.334 128.636 157.232 128.657C157.13 128.681 157.001 128.693 156.845 128.693C156.608 128.693 156.376 128.642 156.149 128.54C155.924 128.438 155.737 128.283 155.588 128.075C155.441 127.866 155.368 127.604 155.368 127.286V121.86ZM158.631 128.622V123.167H159.441V123.991H159.498C159.597 123.721 159.777 123.502 160.038 123.334C160.298 123.166 160.592 123.082 160.918 123.082C160.98 123.082 161.057 123.083 161.149 123.085C161.241 123.088 161.311 123.091 161.359 123.096V123.948C161.33 123.941 161.265 123.931 161.163 123.916C161.064 123.9 160.958 123.891 160.847 123.891C160.582 123.891 160.345 123.947 160.137 124.058C159.931 124.167 159.768 124.319 159.647 124.513C159.529 124.705 159.469 124.924 159.469 125.17V128.622H158.631ZM164.402 128.735C163.909 128.735 163.477 128.618 163.106 128.384C162.736 128.149 162.448 127.821 162.239 127.4C162.033 126.979 161.93 126.486 161.93 125.923C161.93 125.355 162.033 124.859 162.239 124.435C162.448 124.011 162.736 123.682 163.106 123.448C163.477 123.213 163.909 123.096 164.402 123.096C164.894 123.096 165.325 123.213 165.694 123.448C166.066 123.682 166.355 124.011 166.561 124.435C166.769 124.859 166.873 125.355 166.873 125.923C166.873 126.486 166.769 126.979 166.561 127.4C166.355 127.821 166.066 128.149 165.694 128.384C165.325 128.618 164.894 128.735 164.402 128.735ZM164.402 127.982C164.776 127.982 165.084 127.887 165.325 127.695C165.567 127.503 165.745 127.251 165.861 126.938C165.977 126.626 166.035 126.287 166.035 125.923C166.035 125.558 165.977 125.218 165.861 124.904C165.745 124.589 165.567 124.334 165.325 124.14C165.084 123.946 164.776 123.849 164.402 123.849C164.028 123.849 163.72 123.946 163.479 124.14C163.237 124.334 163.058 124.589 162.942 124.904C162.826 125.218 162.768 125.558 162.768 125.923C162.768 126.287 162.826 126.626 162.942 126.938C163.058 127.251 163.237 127.503 163.479 127.695C163.72 127.887 164.028 127.982 164.402 127.982ZM168.991 121.349V128.622H168.153V121.349H168.991Z" fill="#232323"/>
<path d="M62.5661 86.8919H58.4411V75.2555H62.6001C63.7706 75.2555 64.7782 75.4885 65.6229 75.9544C66.4676 76.4165 67.1172 77.0813 67.5717 77.9487C68.0301 78.8161 68.2592 79.854 68.2592 81.0624C68.2592 82.2745 68.0301 83.3161 67.5717 84.1874C67.1172 85.0586 66.4638 85.7271 65.6115 86.193C64.763 86.659 63.7479 86.8919 62.5661 86.8919ZM60.9013 84.784H62.4638C63.1911 84.784 63.8028 84.6552 64.299 84.3976C64.799 84.1362 65.174 83.7328 65.424 83.1874C65.6778 82.6381 65.8047 81.9298 65.8047 81.0624C65.8047 80.2025 65.6778 79.4999 65.424 78.9544C65.174 78.409 64.8009 78.0074 64.3047 77.7499C63.8085 77.4923 63.1967 77.3635 62.4695 77.3635H60.9013V84.784ZM72.5249 87.0567C71.968 87.0567 71.4718 86.9601 71.0362 86.7669C70.6006 86.5699 70.2559 86.2802 70.0021 85.8976C69.7521 85.5112 69.6271 85.0302 69.6271 84.4544C69.6271 83.9696 69.7161 83.5624 69.8942 83.2328C70.0722 82.9033 70.3146 82.6381 70.6214 82.4374C70.9283 82.2366 71.2768 82.0851 71.6669 81.9828C72.0608 81.8805 72.4737 81.8086 72.9055 81.7669C73.4131 81.7139 73.8222 81.6646 74.1328 81.6192C74.4434 81.5699 74.6688 81.498 74.8089 81.4033C74.9491 81.3086 75.0192 81.1684 75.0192 80.9828V80.9487C75.0192 80.5889 74.9055 80.3105 74.6783 80.1135C74.4548 79.9165 74.1366 79.818 73.7237 79.818C73.2881 79.818 72.9415 79.9146 72.6839 80.1078C72.4264 80.2972 72.2559 80.5358 72.1726 80.8237L69.9339 80.6419C70.0476 80.1116 70.2711 79.6533 70.6044 79.2669C70.9377 78.8768 71.3677 78.5775 71.8942 78.3692C72.4245 78.1571 73.0381 78.051 73.7351 78.051C74.2199 78.051 74.6839 78.1078 75.1271 78.2215C75.5741 78.3351 75.9699 78.5112 76.3146 78.7499C76.6631 78.9885 76.9377 79.2953 77.1385 79.6703C77.3393 80.0415 77.4396 80.4866 77.4396 81.0055V86.8919H75.1442V85.6817H75.076C74.9358 85.9544 74.7483 86.1949 74.5135 86.4033C74.2786 86.6078 73.9964 86.7688 73.6669 86.8862C73.3374 86.9999 72.9567 87.0567 72.5249 87.0567ZM73.218 85.3862C73.5741 85.3862 73.8885 85.3161 74.1612 85.176C74.4339 85.0321 74.648 84.8389 74.8033 84.5965C74.9586 84.354 75.0362 84.0794 75.0362 83.7726V82.8465C74.9605 82.8957 74.8563 82.9411 74.7237 82.9828C74.5949 83.0207 74.4491 83.0567 74.2862 83.0908C74.1233 83.1211 73.9605 83.1495 73.7976 83.176C73.6347 83.1987 73.487 83.2196 73.3544 83.2385C73.0703 83.2802 72.8222 83.3465 72.6101 83.4374C72.398 83.5283 72.2332 83.6514 72.1158 83.8067C71.9983 83.9582 71.9396 84.1476 71.9396 84.3749C71.9396 84.7044 72.0589 84.9563 72.2976 85.1305C72.54 85.301 72.8468 85.3862 73.218 85.3862ZM83.9595 78.1646V79.9828H78.7038V78.1646H83.9595ZM79.897 76.0737H82.3175V84.2101C82.3175 84.4336 82.3516 84.6078 82.4197 84.7328C82.4879 84.854 82.5826 84.9393 82.7038 84.9885C82.8288 85.0377 82.9728 85.0624 83.1357 85.0624C83.2493 85.0624 83.3629 85.0529 83.4766 85.034C83.5902 85.0112 83.6773 84.9942 83.7379 84.9828L84.1186 86.784C83.9974 86.8218 83.8269 86.8654 83.6072 86.9146C83.3875 86.9677 83.1205 86.9999 82.8061 87.0112C82.2228 87.034 81.7114 86.9563 81.272 86.7783C80.8364 86.6002 80.4974 86.3237 80.255 85.9487C80.0125 85.5737 79.8932 85.1002 79.897 84.5283V76.0737ZM88.0249 87.0567C87.468 87.0567 86.9718 86.9601 86.5362 86.7669C86.1006 86.5699 85.7559 86.2802 85.5021 85.8976C85.2521 85.5112 85.1271 85.0302 85.1271 84.4544C85.1271 83.9696 85.2161 83.5624 85.3942 83.2328C85.5722 82.9033 85.8146 82.6381 86.1214 82.4374C86.4283 82.2366 86.7768 82.0851 87.1669 81.9828C87.5608 81.8805 87.9737 81.8086 88.4055 81.7669C88.9131 81.7139 89.3222 81.6646 89.6328 81.6192C89.9434 81.5699 90.1688 81.498 90.3089 81.4033C90.4491 81.3086 90.5192 81.1684 90.5192 80.9828V80.9487C90.5192 80.5889 90.4055 80.3105 90.1783 80.1135C89.9548 79.9165 89.6366 79.818 89.2237 79.818C88.7881 79.818 88.4415 79.9146 88.1839 80.1078C87.9264 80.2972 87.7559 80.5358 87.6726 80.8237L85.4339 80.6419C85.5476 80.1116 85.7711 79.6533 86.1044 79.2669C86.4377 78.8768 86.8677 78.5775 87.3942 78.3692C87.9245 78.1571 88.5381 78.051 89.2351 78.051C89.7199 78.051 90.1839 78.1078 90.6271 78.2215C91.0741 78.3351 91.4699 78.5112 91.8146 78.7499C92.1631 78.9885 92.4377 79.2953 92.6385 79.6703C92.8393 80.0415 92.9396 80.4866 92.9396 81.0055V86.8919H90.6442V85.6817H90.576C90.4358 85.9544 90.2483 86.1949 90.0135 86.4033C89.7786 86.6078 89.4964 86.7688 89.1669 86.8862C88.8374 86.9999 88.4567 87.0567 88.0249 87.0567ZM88.718 85.3862C89.0741 85.3862 89.3885 85.3161 89.6612 85.176C89.9339 85.0321 90.148 84.8389 90.3033 84.5965C90.4586 84.354 90.5362 84.0794 90.5362 83.7726V82.8465C90.4605 82.8957 90.3563 82.9411 90.2237 82.9828C90.0949 83.0207 89.9491 83.0567 89.7862 83.0908C89.6233 83.1211 89.4605 83.1495 89.2976 83.176C89.1347 83.1987 88.987 83.2196 88.8544 83.2385C88.5703 83.2802 88.3222 83.3465 88.1101 83.4374C87.898 83.5283 87.7332 83.6514 87.6158 83.8067C87.4983 83.9582 87.4396 84.1476 87.4396 84.3749C87.4396 84.7044 87.5589 84.9563 87.7976 85.1305C88.04 85.301 88.3468 85.3862 88.718 85.3862ZM106.282 79.0169C106.202 78.7404 106.091 78.4961 105.947 78.284C105.803 78.068 105.627 77.8862 105.418 77.7385C105.214 77.587 104.979 77.4715 104.714 77.3919C104.452 77.3124 104.163 77.2726 103.844 77.2726C103.25 77.2726 102.727 77.4203 102.276 77.7158C101.829 78.0112 101.481 78.4411 101.231 79.0055C100.981 79.5661 100.856 80.2518 100.856 81.0624C100.856 81.873 100.979 82.5624 101.225 83.1305C101.471 83.6987 101.82 84.1324 102.271 84.4317C102.721 84.7271 103.254 84.8749 103.867 84.8749C104.424 84.8749 104.899 84.7764 105.293 84.5794C105.691 84.3786 105.994 84.0965 106.202 83.7328C106.415 83.3692 106.521 82.9393 106.521 82.443L107.021 82.5169H104.021V80.6646H108.89V82.1305C108.89 83.1533 108.674 84.0321 108.242 84.7669C107.81 85.498 107.216 86.0624 106.458 86.4601C105.701 86.854 104.833 87.051 103.856 87.051C102.765 87.051 101.807 86.8105 100.981 86.3294C100.155 85.8446 99.5111 85.1571 99.049 84.2669C98.5907 83.373 98.3615 82.3124 98.3615 81.0851C98.3615 80.1419 98.4979 79.301 98.7706 78.5624C99.0471 77.8199 99.4335 77.1911 99.9297 76.676C100.426 76.1608 101.004 75.7688 101.663 75.4999C102.322 75.2309 103.036 75.0965 103.805 75.0965C104.464 75.0965 105.077 75.193 105.646 75.3862C106.214 75.5756 106.718 75.8446 107.157 76.193C107.6 76.5415 107.962 76.9563 108.242 77.4374C108.522 77.9146 108.702 78.4411 108.782 79.0169H106.282ZM116.289 83.176V78.1646H118.71V86.8919H116.386V85.3067H116.295C116.098 85.818 115.77 86.229 115.312 86.5396C114.857 86.8502 114.302 87.0055 113.647 87.0055C113.064 87.0055 112.55 86.873 112.107 86.6078C111.664 86.3427 111.317 85.9658 111.067 85.4771C110.821 84.9885 110.696 84.4033 110.692 83.7215V78.1646H113.113V83.2896C113.117 83.8048 113.255 84.212 113.528 84.5112C113.8 84.8105 114.166 84.9601 114.624 84.9601C114.916 84.9601 115.189 84.8938 115.442 84.7612C115.696 84.6249 115.901 84.4241 116.056 84.159C116.215 83.8938 116.293 83.5661 116.289 83.176ZM123.134 87.0567C122.577 87.0567 122.081 86.9601 121.646 86.7669C121.21 86.5699 120.865 86.2802 120.612 85.8976C120.362 85.5112 120.237 85.0302 120.237 84.4544C120.237 83.9696 120.326 83.5624 120.504 83.2328C120.682 82.9033 120.924 82.6381 121.231 82.4374C121.538 82.2366 121.886 82.0851 122.276 81.9828C122.67 81.8805 123.083 81.8086 123.515 81.7669C124.022 81.7139 124.432 81.6646 124.742 81.6192C125.053 81.5699 125.278 81.498 125.418 81.4033C125.558 81.3086 125.629 81.1684 125.629 80.9828V80.9487C125.629 80.5889 125.515 80.3105 125.288 80.1135C125.064 79.9165 124.746 79.818 124.333 79.818C123.897 79.818 123.551 79.9146 123.293 80.1078C123.036 80.2972 122.865 80.5358 122.782 80.8237L120.543 80.6419C120.657 80.1116 120.88 79.6533 121.214 79.2669C121.547 78.8768 121.977 78.5775 122.504 78.3692C123.034 78.1571 123.647 78.051 124.344 78.051C124.829 78.051 125.293 78.1078 125.737 78.2215C126.183 78.3351 126.579 78.5112 126.924 78.7499C127.272 78.9885 127.547 79.2953 127.748 79.6703C127.949 80.0415 128.049 80.4866 128.049 81.0055V86.8919H125.754V85.6817H125.685C125.545 85.9544 125.358 86.1949 125.123 86.4033C124.888 86.6078 124.606 86.7688 124.276 86.8862C123.947 86.9999 123.566 87.0567 123.134 87.0567ZM123.827 85.3862C124.183 85.3862 124.498 85.3161 124.771 85.176C125.043 85.0321 125.257 84.8389 125.413 84.5965C125.568 84.354 125.646 84.0794 125.646 83.7726V82.8465C125.57 82.8957 125.466 82.9411 125.333 82.9828C125.204 83.0207 125.058 83.0567 124.896 83.0908C124.733 83.1211 124.57 83.1495 124.407 83.176C124.244 83.1987 124.096 83.2196 123.964 83.2385C123.68 83.2802 123.432 83.3465 123.219 83.4374C123.007 83.5283 122.843 83.6514 122.725 83.8067C122.608 83.9582 122.549 84.1476 122.549 84.3749C122.549 84.7044 122.668 84.9563 122.907 85.1305C123.149 85.301 123.456 85.3862 123.827 85.3862ZM129.927 86.8919V78.1646H132.273V79.6874H132.364C132.523 79.1457 132.79 78.7366 133.165 78.4601C133.54 78.1798 133.972 78.0396 134.461 78.0396C134.582 78.0396 134.713 78.0472 134.853 78.0624C134.993 78.0775 135.116 78.0983 135.222 78.1249V80.2726C135.109 80.2385 134.951 80.2082 134.751 80.1817C134.55 80.1552 134.366 80.1419 134.2 80.1419C133.844 80.1419 133.525 80.2196 133.245 80.3749C132.969 80.5264 132.749 80.7385 132.586 81.0112C132.427 81.284 132.347 81.5983 132.347 81.9544V86.8919H129.927ZM139.283 87.034C138.621 87.034 138.02 86.8635 137.482 86.5226C136.948 86.1779 136.524 85.6722 136.21 85.0055C135.899 84.3351 135.744 83.5131 135.744 82.5396C135.744 81.5396 135.905 80.7082 136.227 80.0453C136.549 79.3786 136.977 78.8805 137.511 78.551C138.049 78.2177 138.638 78.051 139.278 78.051C139.766 78.051 140.174 78.1343 140.499 78.301C140.829 78.4639 141.094 78.6684 141.295 78.9146C141.499 79.1571 141.655 79.3957 141.761 79.6305H141.835V75.2555H144.249V86.8919H141.863V85.4942H141.761C141.647 85.7366 141.486 85.9771 141.278 86.2158C141.073 86.4506 140.806 86.6457 140.477 86.801C140.151 86.9563 139.753 87.034 139.283 87.034ZM140.05 85.1078C140.441 85.1078 140.77 85.0018 141.039 84.7896C141.312 84.5737 141.52 84.2726 141.664 83.8862C141.812 83.4999 141.886 83.0472 141.886 82.5283C141.886 82.0093 141.814 81.5586 141.67 81.176C141.526 80.7934 141.317 80.498 141.045 80.2896C140.772 80.0813 140.441 79.9771 140.05 79.9771C139.653 79.9771 139.317 80.0851 139.045 80.301C138.772 80.5169 138.566 80.8161 138.425 81.1987C138.285 81.5813 138.215 82.0245 138.215 82.5283C138.215 83.0358 138.285 83.4847 138.425 83.8749C138.569 84.2612 138.776 84.5643 139.045 84.784C139.317 84.9999 139.653 85.1078 140.05 85.1078ZM146.239 86.8919V78.1646H148.66V86.8919H146.239ZM147.455 77.0396C147.095 77.0396 146.787 76.9203 146.529 76.6817C146.275 76.4393 146.148 76.1495 146.148 75.8124C146.148 75.479 146.275 75.193 146.529 74.9544C146.787 74.712 147.095 74.5908 147.455 74.5908C147.815 74.5908 148.122 74.712 148.376 74.9544C148.633 75.193 148.762 75.479 148.762 75.8124C148.762 76.1495 148.633 76.4393 148.376 76.6817C148.122 76.9203 147.815 77.0396 147.455 77.0396ZM153.087 87.0567C152.531 87.0567 152.034 86.9601 151.599 86.7669C151.163 86.5699 150.818 86.2802 150.565 85.8976C150.315 85.5112 150.19 85.0302 150.19 84.4544C150.19 83.9696 150.279 83.5624 150.457 83.2328C150.635 82.9033 150.877 82.6381 151.184 82.4374C151.491 82.2366 151.839 82.0851 152.229 81.9828C152.623 81.8805 153.036 81.8086 153.468 81.7669C153.976 81.7139 154.385 81.6646 154.695 81.6192C155.006 81.5699 155.231 81.498 155.371 81.4033C155.512 81.3086 155.582 81.1684 155.582 80.9828V80.9487C155.582 80.5889 155.468 80.3105 155.241 80.1135C155.017 79.9165 154.699 79.818 154.286 79.818C153.851 79.818 153.504 79.9146 153.246 80.1078C152.989 80.2972 152.818 80.5358 152.735 80.8237L150.496 80.6419C150.61 80.1116 150.834 79.6533 151.167 79.2669C151.5 78.8768 151.93 78.5775 152.457 78.3692C152.987 78.1571 153.601 78.051 154.298 78.051C154.782 78.051 155.246 78.1078 155.69 78.2215C156.137 78.3351 156.532 78.5112 156.877 78.7499C157.226 78.9885 157.5 79.2953 157.701 79.6703C157.902 80.0415 158.002 80.4866 158.002 81.0055V86.8919H155.707V85.6817H155.638C155.498 85.9544 155.311 86.1949 155.076 86.4033C154.841 86.6078 154.559 86.7688 154.229 86.8862C153.9 86.9999 153.519 87.0567 153.087 87.0567ZM153.781 85.3862C154.137 85.3862 154.451 85.3161 154.724 85.176C154.996 85.0321 155.21 84.8389 155.366 84.5965C155.521 84.354 155.599 84.0794 155.599 83.7726V82.8465C155.523 82.8957 155.419 82.9411 155.286 82.9828C155.157 83.0207 155.012 83.0567 154.849 83.0908C154.686 83.1211 154.523 83.1495 154.36 83.176C154.197 83.1987 154.049 83.2196 153.917 83.2385C153.633 83.2802 153.385 83.3465 153.173 83.4374C152.96 83.5283 152.796 83.6514 152.678 83.8067C152.561 83.9582 152.502 84.1476 152.502 84.3749C152.502 84.7044 152.621 84.9563 152.86 85.1305C153.103 85.301 153.409 85.3862 153.781 85.3862ZM162.3 81.8465V86.8919H159.88V78.1646H162.187V79.7044H162.289C162.482 79.1968 162.806 78.7953 163.261 78.4999C163.715 78.2006 164.266 78.051 164.914 78.051C165.52 78.051 166.049 78.1836 166.499 78.4487C166.95 78.7139 167.3 79.0927 167.55 79.5851C167.8 80.0737 167.925 80.6571 167.925 81.3351V86.8919H165.505V81.7669C165.509 81.2328 165.372 80.8161 165.096 80.5169C164.819 80.2139 164.439 80.0624 163.954 80.0624C163.628 80.0624 163.34 80.1324 163.09 80.2726C162.844 80.4127 162.651 80.6173 162.511 80.8862C162.374 81.1514 162.304 81.4715 162.3 81.8465ZM94.826 96.284V94.2555H104.383V96.284H100.82V105.892H98.3885V96.284H94.826ZM105.005 105.892V97.1646H107.352V98.6874H107.442C107.602 98.1457 107.869 97.7366 108.244 97.4601C108.619 97.1798 109.05 97.0396 109.539 97.0396C109.66 97.0396 109.791 97.0472 109.931 97.0624C110.071 97.0775 110.194 97.0983 110.3 97.1249V99.2726C110.187 99.2385 110.03 99.2082 109.829 99.1817C109.628 99.1552 109.444 99.1419 109.278 99.1419C108.922 99.1419 108.603 99.2196 108.323 99.3749C108.047 99.5264 107.827 99.7385 107.664 100.011C107.505 100.284 107.425 100.598 107.425 100.954V105.892H105.005ZM117.148 102.176V97.1646H119.569V105.892H117.245V104.307H117.154C116.957 104.818 116.629 105.229 116.171 105.54C115.717 105.85 115.162 106.006 114.506 106.006C113.923 106.006 113.41 105.873 112.967 105.608C112.523 105.343 112.177 104.966 111.927 104.477C111.681 103.988 111.556 103.403 111.552 102.721V97.1646H113.972V102.29C113.976 102.805 114.114 103.212 114.387 103.511C114.66 103.81 115.025 103.96 115.484 103.96C115.775 103.96 116.048 103.894 116.302 103.761C116.556 103.625 116.76 103.424 116.915 103.159C117.075 102.894 117.152 102.566 117.148 102.176ZM128.766 99.6533L126.55 99.7896C126.513 99.6002 126.431 99.4298 126.306 99.2783C126.181 99.123 126.016 98.9999 125.812 98.909C125.611 98.8143 125.371 98.7669 125.09 98.7669C124.715 98.7669 124.399 98.8465 124.141 99.0055C123.884 99.1608 123.755 99.3692 123.755 99.6305C123.755 99.8389 123.838 100.015 124.005 100.159C124.172 100.303 124.458 100.418 124.863 100.506L126.442 100.824C127.291 100.998 127.924 101.278 128.34 101.665C128.757 102.051 128.965 102.559 128.965 103.187C128.965 103.759 128.797 104.261 128.46 104.693C128.126 105.125 127.668 105.462 127.085 105.704C126.505 105.943 125.836 106.062 125.079 106.062C123.924 106.062 123.003 105.822 122.317 105.341C121.636 104.856 121.236 104.197 121.119 103.363L123.499 103.238C123.571 103.591 123.746 103.86 124.022 104.045C124.299 104.227 124.653 104.318 125.085 104.318C125.509 104.318 125.85 104.237 126.107 104.074C126.369 103.907 126.501 103.693 126.505 103.432C126.501 103.212 126.408 103.032 126.227 102.892C126.045 102.748 125.764 102.638 125.386 102.562L123.874 102.261C123.022 102.091 122.388 101.795 121.971 101.375C121.558 100.954 121.352 100.418 121.352 99.7669C121.352 99.2063 121.503 98.7233 121.806 98.318C122.113 97.9127 122.543 97.6002 123.096 97.3805C123.653 97.1608 124.304 97.051 125.05 97.051C126.153 97.051 127.02 97.284 127.653 97.7499C128.289 98.2158 128.66 98.8502 128.766 99.6533ZM135.131 97.1646V98.9828H129.876V97.1646H135.131ZM131.069 95.0737H133.489V103.21C133.489 103.434 133.523 103.608 133.592 103.733C133.66 103.854 133.754 103.939 133.876 103.988C134.001 104.038 134.145 104.062 134.308 104.062C134.421 104.062 134.535 104.053 134.648 104.034C134.762 104.011 134.849 103.994 134.91 103.983L135.29 105.784C135.169 105.822 134.999 105.865 134.779 105.915C134.559 105.968 134.292 106 133.978 106.011C133.395 106.034 132.883 105.956 132.444 105.778C132.008 105.6 131.669 105.324 131.427 104.949C131.184 104.574 131.065 104.1 131.069 103.528V95.0737Z" fill="#1E1E1E"/>
<g clip-path="url(#clip0_25_30)">
<path d="M49.0895 30.8484C46.9499 30.8484 45.2105 32.6069 45.2105 34.7682C45.2105 36.93 46.9505 38.6879 49.0895 38.6879C51.228 38.6879 52.968 36.93 52.968 34.7682C52.968 32.6069 51.228 30.8484 49.0895 30.8484Z" fill="#198754"/>
<path d="M83.6006 18.5346H84.2864V17.973H78.0299H76.8601H34.2703V51.6723H84.2864V51.1106H83.6006C83.2933 51.1106 83.1749 50.8135 83.1749 50.5035V46.0103C83.1749 45.7002 83.2933 45.4941 83.6006 45.4941H84.2864V24.1512H83.6006C83.2933 24.1512 83.1749 23.8277 83.1749 23.5176V19.0244C83.1749 18.7144 83.2933 18.5346 83.6006 18.5346ZM39.8276 42.6858C39.8276 43.3059 39.3297 43.8091 38.7162 43.8091H37.6047C36.9912 43.8091 36.4932 43.3059 36.4932 42.6858V26.9595C36.4932 26.3394 36.9912 25.8362 37.6047 25.8362H38.7162C39.3297 25.8362 39.8276 26.3394 39.8276 26.9595V42.6858ZM49.0895 42.0573C45.1116 42.0573 41.8761 38.7874 41.8761 34.7676C41.8761 30.7478 45.1116 27.4779 49.0895 27.4779C53.0663 27.4779 56.3024 30.7478 56.3024 34.7676C56.3024 38.7874 53.0663 42.0573 49.0895 42.0573Z" fill="#198754"/>
<path d="M87.4307 7.86317H30.7925C26.809 7.86317 23.7113 11.0837 23.7113 15.1102V54.4255C23.7113 58.2633 26.6584 61.4114 30.3835 61.6984C30.3835 61.7085 30.3802 61.7175 30.3802 61.7271V62.8419C30.3802 63.4614 30.7364 64.0282 31.3482 64.0282H34.8672C35.4807 64.0282 35.9375 63.4609 35.9375 62.8419V61.7821H83.1749V62.8425C83.1749 63.462 83.5189 64.0287 84.1314 64.0287H87.653C88.2666 64.0287 88.7323 63.4614 88.7323 62.8425V61.7276C88.7323 61.6945 88.7317 61.6641 88.7284 61.6321C92.1845 61.0879 94.8454 58.0684 94.8454 54.4261V15.1102C94.8454 11.0837 91.4143 7.86317 87.4307 7.86317ZM88.7323 23.5176C88.7323 23.8277 88.2816 24.1512 87.9748 24.1512H87.6208V45.4941H87.9748C88.2821 45.4941 88.7323 45.7002 88.7323 46.0102V50.5035C88.7323 50.8135 88.2816 51.1106 87.9748 51.1106H87.6208V53.3022C87.6208 54.2323 86.7077 55.0422 85.7874 55.0422H32.4369C31.5155 55.0422 30.9359 54.2329 30.9359 53.3022V38.1123C29.2687 37.8314 28.1822 36.4531 28.1822 34.7917C28.1822 33.1298 29.2687 31.7521 30.9359 31.4712V16.2335C30.9359 15.3029 31.5155 14.603 32.4369 14.603H76.8601H78.0299H85.7874C86.7077 14.603 87.6208 15.3029 87.6208 16.2335V18.5346H87.9748C88.2821 18.5346 88.7323 18.7144 88.7323 19.0244V23.5176Z" fill="#198754"/>
</g>
<defs>
<clipPath id="clip0_25_30">
<rect width="71.134" height="71.8919" fill="white" transform="translate(23.7113)"/>
</clipPath>
</defs>
</svg>
