<svg width="139" height="49" viewBox="0 0 139 49" fill="none" xmlns="http://www.w3.org/2000/svg">
<path fill-rule="evenodd" clip-rule="evenodd" d="M20.7179 9.97985H25.9919V4.16596H20.7179V9.97985Z" fill="#FFD200"/>
<path fill-rule="evenodd" clip-rule="evenodd" d="M20.7179 44.1466H25.9919V38.3327H20.7179V44.1466Z" fill="#FFD200"/>
<path fill-rule="evenodd" clip-rule="evenodd" d="M35.8926 27.1147H42.0271V22.1164H35.8926V27.1147Z" fill="#FFD200"/>
<path fill-rule="evenodd" clip-rule="evenodd" d="M4.03735 27.1147H10.1719V22.1164H4.03735V27.1147Z" fill="#FFD200"/>
<path fill-rule="evenodd" clip-rule="evenodd" d="M10.1146 1.09551H36.5039L26.8739 5.41555V9.24505H24.5948V5.41555H22.0941V9.24505H19.7425V5.41555" fill="#E20019"/>
<path d="M10.1146 1.09549H36.5039L26.8739 5.41553V9.24503H24.5948V5.41553H22.0941V9.24503H19.7425V5.41553L10.1146 1.09549Z" stroke="#19171B" stroke-width="1.74533"/>
<path fill-rule="evenodd" clip-rule="evenodd" d="M10.1146 47.213H36.5039L26.8739 42.895V39.0635H24.5948V42.895H22.0941V39.0635H19.7425V42.895" fill="#E20019"/>
<path d="M10.1146 47.213H36.5039L26.8739 42.895V39.0635H24.5948V42.895H22.0941V39.0635H19.7425V42.895L10.1146 47.213Z" stroke="#19171B" stroke-width="1.74533"/>
<path fill-rule="evenodd" clip-rule="evenodd" d="M1 12.1722L5.55832 21.2988H9.59904V23.4588H5.55832V25.8267H9.59904V28.0574H5.55832L1 36.207" fill="#E20019"/>
<path d="M1 12.1722L5.55832 21.2988H9.59904V23.4588H5.55832V25.8267H9.59904V28.0574H5.55832L1 36.207V12.1722Z" stroke="#19171B" stroke-width="1.74533"/>
<path fill-rule="evenodd" clip-rule="evenodd" d="M45.6184 12.1722L41.0622 21.2988H37.0172V23.4588H41.0622V25.8267H37.0172V28.0574H41.0622L45.6184 36.207" fill="#E20019"/>
<path d="M45.6184 12.1722L41.0622 21.2988H37.0172V23.4588H41.0622V25.8267H37.0172V28.0574H41.0622L45.6184 36.207V12.1722Z" stroke="#19171B" stroke-width="1.74533"/>
<path fill-rule="evenodd" clip-rule="evenodd" d="M9.6012 9.24503H37.0172V34.2549C37.0172 36.2069 33.7092 39.0634 31.4322 39.0634H24.5947C23.9344 39.0634 23.3465 39.7599 23.3465 40.0385C23.3465 39.7599 22.6116 39.0634 22.094 39.0634H15.1883C12.9816 39.0634 9.6012 36.2069 9.6012 34.2549" fill="#FFD200"/>
<path d="M9.6012 9.24505H37.0172V34.2549C37.0172 36.207 33.7092 39.0634 31.4322 39.0634H24.5947C23.9344 39.0634 23.3465 39.7599 23.3465 40.0385C23.3465 39.7599 22.6116 39.0634 22.094 39.0634H15.1883C12.9816 39.0634 9.6012 36.207 9.6012 34.2549V9.24505Z" stroke="#19171B" stroke-width="1.74533"/>
<path fill-rule="evenodd" clip-rule="evenodd" d="M12.907 12.1722H33.7091V34.2549C33.7091 35.2319 32.7549 36.207 31.4321 36.207H24.5946C24.0067 36.207 23.3464 36.9034 23.3464 37.182C23.3464 36.9034 22.6115 36.207 22.0939 36.207H15.1883C14.1573 36.207 12.907 35.2319 12.907 34.2549" fill="#19171B"/>
<path fill-rule="evenodd" clip-rule="evenodd" d="M22.9802 21.7853C22.5371 21.2281 25.8451 23.1096 25.8451 24.9224C25.8451 25.8267 24.9611 26.5939 23.8599 26.5939C22.7565 26.5939 21.8022 25.8267 21.8022 24.9224C21.8022 23.5981 24.009 23.5274 22.9802 21.7853Z" fill="#FFD200"/>
<path d="M23.3465 22.2032C23.8599 22.3425 25.5511 23.7374 25.5511 24.9224C25.5511 25.6875 24.8141 26.3153 23.8599 26.3153C22.9802 26.3153 22.2432 25.6875 22.2432 24.991C22.2432 24.5045 22.6841 24.016 23.0526 23.7374" stroke="#19171B" stroke-width="0.872"/>
<path d="M23.9343 26.0347C22.684 25.4795 22.537 24.991 22.9034 24.2945C23.0525 23.9473 23.2719 23.808 23.2719 23.5981" stroke="#19171B" stroke-width="0.872"/>
<path d="M24.0813 26.0347C25.9196 24.8517 24.3007 23.8767 23.421 22.6917" stroke="#19171B" stroke-width="0.872"/>
<path d="M24.0088 25.8268C24.814 24.8517 24.1558 24.0846 23.6382 23.2489" stroke="#19171B" stroke-width="0.872"/>
<path d="M23.7873 25.8268C23.1249 25.4089 23.2719 24.2945 23.4934 23.6687" stroke="#19171B" stroke-width="0.872"/>
<path fill-rule="evenodd" clip-rule="evenodd" d="M31.3577 19.3487H29.3746L29.4449 18.3716C29.741 18.305 30.037 18.0951 30.1819 17.8165C30.3289 17.6065 30.4034 17.2593 30.4034 16.7708C30.4034 16.2116 30.2564 15.7271 29.9625 15.3779C29.594 15.0287 29.2255 14.8914 28.71 14.8914C28.2691 14.8914 27.9027 15.0287 27.6088 15.3779C27.2403 15.7271 27.0933 16.2116 27.0933 16.7708C27.0933 17.1887 27.1679 17.5379 27.317 17.8165C27.5364 18.0951 27.7558 18.305 28.0518 18.3716L28.1967 19.3487H26.139V18.3716H26.286C26.286 18.513 26.3606 18.6522 26.4351 18.6522C26.5054 18.7915 26.6545 18.7915 26.8739 18.7915H27.8303V18.5816C27.317 18.4423 26.9485 18.1637 26.7269 17.8851C26.4351 17.5379 26.286 17.12 26.286 16.7001C26.286 16.143 26.5054 15.6565 26.9485 15.2366C27.3894 14.8207 27.9773 14.6814 28.71 14.6814C29.2255 14.6814 29.6664 14.7501 30.037 14.8914C30.4034 15.0973 30.6952 15.3072 30.9168 15.6565C31.1383 15.9351 31.2107 16.2823 31.2107 16.7001C31.2107 17.12 31.0659 17.5379 30.8443 17.8851C30.5504 18.2344 30.1095 18.4423 29.6664 18.5816V18.7915H30.6228C30.8443 18.7915 30.9913 18.7915 31.0659 18.7229C31.1383 18.6522 31.2107 18.513 31.2107 18.3716H31.3577" fill="#FFD200"/>
<path d="M50.0851 11.9138H53.6082V20.0492C53.6082 20.8324 53.7786 21.4199 54.1215 21.8135C54.4624 22.2092 54.9714 22.405 55.6509 22.405C56.3581 22.405 56.914 22.189 57.323 21.751C57.7277 21.3169 57.9322 20.7154 57.9322 19.9503V12.8888H56.9034V11.9138H60.4244V22.5584H61.4553V23.5335H58.0195L57.9493 22.3566C57.4743 22.8269 56.963 23.1822 56.4156 23.4164C55.8703 23.6526 55.2803 23.7717 54.6477 23.7717C53.491 23.7717 52.6113 23.4648 52.0128 22.8512C51.4142 22.2375 51.1139 21.3371 51.1139 20.1501V12.8888H50.0851" fill="#19171B"/>
<path d="M63.0699 20.0431V13.8901L62.269 14.098V13.2926L65.1766 12.477H65.2831L65.2639 13.8558C65.8774 13.3773 66.4461 13.02 66.9679 12.7859C67.4919 12.5497 67.9776 12.4326 68.427 12.4326C69.1875 12.4326 69.7903 12.6567 70.2397 13.1048C70.6913 13.553 70.9149 14.1606 70.9149 14.9277V20.0431H71.7158V20.8668H67.8945V20.0431H68.7189V15.1841C68.7189 14.7682 68.6081 14.4533 68.3887 14.2353C68.1672 14.0173 67.8455 13.9062 67.428 13.9062C67.0851 13.9062 66.723 13.991 66.3417 14.1566C65.9604 14.3221 65.6026 14.5522 65.2639 14.8449V20.0431H66.0882V20.8668H62.269V20.0431" fill="#19171B"/>
<path d="M73.0257 10.7187C73.0257 10.4038 73.1471 10.1292 73.3921 9.89709C73.6391 9.66494 73.9331 9.54987 74.276 9.54987C74.6254 9.54987 74.9193 9.66292 75.16 9.88901C75.3986 10.1151 75.5179 10.3937 75.5179 10.7187C75.5179 11.0437 75.3964 11.3243 75.1515 11.5605C74.9065 11.7947 74.6147 11.9138 74.276 11.9138C73.9437 11.9138 73.6519 11.7927 73.4006 11.5524C73.1514 11.3122 73.0257 11.0336 73.0257 10.7187ZM75.4241 12.4326H75.5179C75.4923 12.6647 75.4753 12.8828 75.4646 13.0826C75.4561 13.2845 75.4497 13.4702 75.4497 13.6418V20.0431H76.274V20.8668H72.4548V20.0431H73.2536V13.874L72.4548 14.0799V13.2865" fill="#19171B"/>
<path d="M83.5846 14.1303C83.4908 14.1969 83.3929 14.2434 83.2949 14.2737C83.1969 14.3039 83.0712 14.3181 82.9179 14.3181C82.7368 14.3181 82.4237 14.2575 81.9785 14.1344C81.5354 14.0132 81.2117 13.9507 81.0136 13.9507C80.7558 13.9507 80.5066 14.0173 80.2638 14.1525C80.021 14.2878 79.7845 14.4897 79.5566 14.7602L81.4417 18.9914L83.5846 14.1303ZM78.7003 12.4326C78.7515 12.6991 78.826 12.9736 78.9261 13.2562C79.0262 13.5388 79.1455 13.8316 79.2861 14.1303C79.7931 13.4985 80.2276 13.0644 80.5833 12.8303C80.9412 12.5941 81.3246 12.477 81.7335 12.477C82.0083 12.477 82.396 12.5295 82.8923 12.6385C83.3907 12.7475 83.7486 12.802 83.9637 12.802C84.1171 12.802 84.2598 12.7818 84.394 12.7414C84.5282 12.7031 84.6837 12.6324 84.8605 12.5315L85.2375 12.8767C85.0905 13.1068 84.9031 13.4742 84.6752 13.9769C84.6347 14.0839 84.6027 14.1626 84.5772 14.2131L82.2128 19.5506C82.1212 19.7787 82.0381 19.9987 81.9679 20.2127C81.8976 20.4267 81.8358 20.6447 81.7825 20.8668H80.0231C79.9507 20.6003 79.8144 20.247 79.6099 19.809C79.5864 19.7524 79.5694 19.7141 79.5566 19.6919L76.9729 14.1142L76.2572 14.4028L75.9504 13.7569" fill="#19171B"/>
<path d="M90.8671 15.392C90.6519 14.7581 90.3601 14.2696 89.9916 13.9264C89.6231 13.5812 89.212 13.4076 88.7562 13.4076C88.2577 13.4076 87.8466 13.6176 87.5207 14.0334C87.1927 14.4493 87.0287 14.9701 87.0287 15.5919C87.0287 15.7473 87.0351 15.9028 87.05 16.0542C87.0649 16.2076 87.0883 16.359 87.116 16.5084L90.8671 15.392ZM91.9193 16.034L87.4142 17.4188C87.6485 18.1031 87.9979 18.626 88.4665 18.9833C88.933 19.3426 89.4974 19.5223 90.1599 19.5223C90.6157 19.5223 91.046 19.4416 91.4528 19.278C91.8597 19.1145 92.2452 18.8723 92.6073 18.5473L93.1441 19.0762C92.6116 19.7302 91.9917 20.2309 91.2782 20.5801C90.5667 20.9293 89.8106 21.105 89.0097 21.105C87.8339 21.105 86.8689 20.7012 86.117 19.8958C85.3651 19.0923 84.9902 18.0668 84.9902 16.8233C84.9902 15.5798 85.4056 14.5361 86.2363 13.6943C87.067 12.8525 88.0767 12.4326 89.2653 12.4326C89.8212 12.4326 90.3409 12.5436 90.8223 12.7657C91.3059 12.9877 91.7404 13.3168 92.1259 13.7488C92.3964 14.0617 92.6265 14.415 92.8203 14.8126C93.0142 15.2103 93.11 15.4748 93.11 15.608C93.11 15.6928 92.9311 15.7776 92.5711 15.8664C92.3112 15.929 92.094 15.9835 91.9193 16.034Z" fill="#19171B"/>
<path d="M99.4726 12.3902L100.171 12.6809L99.1126 14.8954C98.8038 14.7016 98.5439 14.5704 98.3373 14.4998C98.1307 14.4271 97.9198 14.3907 97.7089 14.3907C97.3703 14.3907 97.0976 14.5139 96.891 14.7602C96.6844 15.0065 96.58 15.3476 96.58 15.7837V20.0492H97.6088V20.8728H93.583V20.0492H94.3839V15.1195C94.3775 14.8712 94.352 14.7097 94.3094 14.635C94.2646 14.5603 94.1794 14.4897 94.058 14.423L93.6789 14.7965L93.0803 14.2817L94.6118 12.4387C95.0847 12.6728 95.4447 12.907 95.7024 13.1432C95.958 13.3814 96.1455 13.6539 96.2626 13.9648C96.5779 13.4036 96.8654 13.0099 97.1232 12.7818C97.3788 12.5537 97.6536 12.4387 97.9475 12.4387C98.1094 12.4387 98.299 12.473 98.512 12.5396C98.725 12.6062 98.9486 12.7031 99.1829 12.8303" fill="#19171B"/>
<path d="M105.76 13.2562L104.802 14.6229C104.327 14.199 103.903 13.8901 103.534 13.6963C103.164 13.5045 102.806 13.4076 102.459 13.4076C102.201 13.4076 101.986 13.4823 101.811 13.6277C101.639 13.775 101.554 13.9567 101.554 14.1707C101.554 14.6088 102.265 15.1255 103.692 15.7211C103.722 15.7332 103.748 15.7433 103.773 15.7554C104.668 16.1329 105.266 16.5003 105.564 16.8576C105.863 17.2149 106.014 17.6833 106.014 18.2586C106.014 19.0519 105.675 19.7242 105.002 20.2773C104.327 20.8284 103.496 21.105 102.506 21.105C101.896 21.105 101.306 20.998 100.742 20.782C100.175 20.57 99.677 20.2632 99.2424 19.8695L100.427 18.3292C101.002 18.9187 101.519 19.3467 101.98 19.6172C102.442 19.8857 102.887 20.0209 103.315 20.0209C103.639 20.0209 103.905 19.9281 104.118 19.7403C104.329 19.5546 104.436 19.3184 104.436 19.0297C104.436 18.5957 103.884 18.1334 102.783 17.6388C102.717 17.6106 102.672 17.5904 102.648 17.5803C101.496 17.0534 100.765 16.6093 100.459 16.2459C100.15 15.8826 99.9965 15.4284 99.9965 14.8853C99.9965 14.1828 100.282 13.5974 100.851 13.1311C101.417 12.6647 102.141 12.4326 103.019 12.4326C103.494 12.4326 103.956 12.5012 104.404 12.6365C104.853 12.7717 105.305 12.9797 105.76 13.2562Z" fill="#19171B"/>
<path d="M106.943 10.7187C106.943 10.4038 107.066 10.1292 107.311 9.89709C107.556 9.66494 107.85 9.54987 108.195 9.54987C108.544 9.54987 108.838 9.66292 109.079 9.88901C109.318 10.1151 109.437 10.3937 109.437 10.7187C109.437 11.0437 109.316 11.3243 109.068 11.5605C108.826 11.7947 108.534 11.9138 108.195 11.9138C107.863 11.9138 107.571 11.7927 107.32 11.5524C107.068 11.3122 106.943 11.0336 106.943 10.7187ZM109.341 12.4326H109.437C109.411 12.6647 109.394 12.8828 109.384 13.0826C109.373 13.2845 109.369 13.4702 109.369 13.6418V20.0431H110.193V20.8668H106.372V20.0431H107.173V13.874L106.372 14.0799V13.2865" fill="#19171B"/>
<path d="M116.777 15.2305C116.777 14.6431 116.617 14.1869 116.294 13.8578C115.972 13.5288 115.529 13.3652 114.962 13.3652C114.355 13.3652 113.85 13.6418 113.446 14.199C113.043 14.7521 112.841 15.4708 112.841 16.3489C112.841 17.326 113.062 18.1274 113.508 18.7552C113.953 19.381 114.511 19.6959 115.182 19.6959C115.467 19.6959 115.753 19.6273 116.036 19.492C116.319 19.3568 116.566 19.1711 116.777 18.9328V15.2305ZM119.738 9.09364V9.93948L118.973 10.1999V20.0431H119.774V20.8668H116.952L116.777 19.8978C116.355 20.2955 115.917 20.5942 115.459 20.7981C115.003 21.002 114.549 21.105 114.098 21.105C113.079 21.105 112.249 20.7335 111.608 19.9907C110.966 19.2478 110.647 18.2768 110.647 17.0797C110.647 15.7554 111.041 14.6491 111.835 13.7629C112.63 12.8767 113.584 12.4326 114.705 12.4326C115.084 12.4326 115.444 12.4851 115.785 12.588C116.123 12.693 116.453 12.8464 116.777 13.0544V10.8883L115.976 11.1487V10.2847" fill="#19171B"/>
<path d="M125.655 16.3388C125.519 16.3166 125.387 16.3004 125.257 16.2924C125.125 16.2843 124.976 16.2802 124.812 16.2802C124.079 16.2802 123.489 16.4559 123.037 16.8071C122.586 17.1584 122.36 17.6146 122.36 18.1778C122.36 18.6583 122.513 19.0459 122.818 19.3447C123.123 19.6434 123.517 19.7908 124.004 19.7908C124.524 19.7908 124.931 19.6333 125.221 19.3144C125.51 18.9974 125.655 18.5452 125.655 17.9598V16.3388ZM122.053 12.259L122.827 12.475L122.669 13.0584C123.048 12.8525 123.423 12.6991 123.791 12.5961C124.162 12.4952 124.531 12.4427 124.899 12.4427C125.883 12.4427 126.62 12.6789 127.112 13.1492C127.604 13.6216 127.851 14.3302 127.851 15.2729V20.0532H128.652V20.8748H125.858L125.655 19.9341C125.268 20.3278 124.856 20.6225 124.424 20.8183C123.987 21.0161 123.527 21.1151 123.042 21.1151C122.243 21.1151 121.576 20.8567 121.039 20.3399C120.503 19.8231 120.234 19.1872 120.234 18.4322C120.234 17.4814 120.607 16.7567 121.35 16.254C122.096 15.7513 123.169 15.499 124.573 15.499C124.754 15.499 124.935 15.503 125.114 15.5111C125.293 15.5192 125.472 15.5333 125.655 15.5495V14.964C125.655 14.5522 125.53 14.2333 125.276 14.0011C125.025 13.771 124.671 13.6559 124.213 13.6559C123.768 13.6559 123.359 13.773 122.984 14.0072C122.609 14.2393 122.292 14.5785 122.034 15.0226L121.206 14.7501" fill="#19171B"/>
<path d="M135.196 15.2305C135.196 14.6431 135.036 14.1869 134.714 13.8578C134.393 13.5288 133.948 13.3652 133.383 13.3652C132.774 13.3652 132.269 13.6418 131.867 14.199C131.464 14.7521 131.262 15.4708 131.262 16.3489C131.262 17.326 131.483 18.1274 131.928 18.7552C132.371 19.381 132.929 19.6959 133.603 19.6959C133.888 19.6959 134.171 19.6273 134.457 19.492C134.74 19.3568 134.985 19.1711 135.196 18.9328V15.2305ZM138.159 9.09364V9.93948L137.392 10.1999V20.0431H138.193V20.8668H135.373L135.196 19.8978C134.774 20.2955 134.335 20.5942 133.879 20.7981C133.422 21.002 132.968 21.105 132.516 21.105C131.498 21.105 130.669 20.7335 130.028 19.9907C129.387 19.2478 129.066 18.2768 129.066 17.0797C129.066 15.7554 129.462 14.6491 130.256 13.7629C131.049 12.8767 132.005 12.4326 133.123 12.4326C133.505 12.4326 133.865 12.4851 134.203 12.588C134.544 12.693 134.874 12.8464 135.196 13.0544V10.8883L134.395 11.1487V10.2847" fill="#19171B"/>
<path d="M65.8007 23.6082V28.3865C65.8007 28.9961 65.9072 29.4301 66.1245 29.6845C66.3417 29.9409 66.7038 30.0681 67.2087 30.0681C67.9414 30.0681 68.5272 29.7935 68.9638 29.2444C69.4005 28.6953 69.6199 27.9545 69.6199 27.0218C69.6199 25.9458 69.3345 25.1061 68.7615 24.5065C68.1906 23.9069 67.3897 23.6082 66.3566 23.6082H65.8007ZM62.2776 22.5443H66.8359C68.5485 22.5443 69.8819 22.9198 70.8383 23.6647C71.7947 24.4116 72.2739 25.4492 72.2739 26.7755C72.2739 28.0029 71.8352 29.0163 70.9597 29.8198C70.0864 30.6212 68.9915 31.0229 67.6752 31.0229C67.3173 31.0229 66.9829 30.9967 66.6719 30.9482C66.3609 30.8977 66.0691 30.821 65.8007 30.7161V33.191H67.0127V34.166H62.2776V33.191H63.3064V23.5214H62.2776" fill="#19171B"/>
<path d="M74.3869 29.4342C74.3869 30.5505 74.6596 31.5034 75.207 32.2907C75.7523 33.078 76.402 33.4716 77.1496 33.4716C77.7929 33.4716 78.302 33.2273 78.6747 32.7388C79.0496 32.2483 79.2371 31.576 79.2371 30.7181C79.2371 29.5916 78.9602 28.6328 78.4085 27.8455C77.8547 27.0582 77.1965 26.6645 76.4296 26.6645C75.8119 26.6645 75.3156 26.9148 74.9429 27.4114C74.5722 27.908 74.3869 28.5823 74.3869 29.4342ZM76.8067 34.4043C75.4477 34.4043 74.3188 33.9965 73.422 33.1769C72.5252 32.3593 72.0758 31.3257 72.0758 30.0721C72.0758 28.8205 72.5252 27.7829 73.422 26.9633C74.3188 26.1417 75.4477 25.7319 76.8067 25.7319C78.1742 25.7319 79.3031 26.1417 80.202 26.9633C81.0987 27.7829 81.546 28.8205 81.546 30.0721C81.546 31.3298 81.0987 32.3674 80.202 33.1809C79.3031 33.9965 78.1742 34.4043 76.8067 34.4043Z" fill="#19171B"/>
<path d="M82.8495 33.3424V27.1894L82.0486 27.3973V26.5918L84.9582 25.7763H85.0647L85.0456 27.1551C85.659 26.6766 86.2256 26.3193 86.7496 26.0851C87.2715 25.851 87.7571 25.7319 88.2087 25.7319C88.967 25.7319 89.5719 25.9559 90.0214 26.4041C90.473 26.8523 90.6966 27.4579 90.6966 28.227V33.3424H91.4975V34.166H87.6783V33.3424H88.5005V28.4834C88.5005 28.0695 88.3898 27.7526 88.1704 27.5346C87.9488 27.3166 87.6272 27.2075 87.2097 27.2075C86.8668 27.2075 86.5047 27.2903 86.1213 27.4558C85.7421 27.6214 85.3843 27.8515 85.0456 28.1442V33.3424H85.8699V34.166H82.0486V33.3424" fill="#19171B"/>
<path d="M94.5565 24.0846L95.1635 24.2178V26.0569H96.8782L96.7653 26.7392C96.7398 26.8846 96.7036 26.9794 96.6503 27.0279C96.597 27.0743 96.4863 27.0985 96.3159 27.0985H95.1635V31.9596C95.1635 32.3815 95.2274 32.6843 95.3616 32.87C95.4937 33.0537 95.7024 33.1466 95.99 33.1466C96.1178 33.1466 96.2498 33.1244 96.3819 33.08C96.514 33.0356 96.6737 32.9568 96.8612 32.8398L97.2446 33.3727C96.8676 33.7139 96.4735 33.9702 96.0603 34.1438C95.6449 34.3174 95.221 34.4043 94.7865 34.4043C94.139 34.4043 93.6704 34.2428 93.3807 33.9198C93.0888 33.5968 92.944 33.0739 92.944 32.3512V27.0985H92.0281V26.4324C92.6628 26.182 93.189 25.8611 93.6086 25.4715C94.0282 25.0798 94.3434 24.6175 94.5565 24.0846Z" fill="#19171B"/>
<path d="M97.8963 24.018C97.8963 23.7031 98.0178 23.4285 98.2627 23.1984C98.5098 22.9662 98.8038 22.8491 99.1467 22.8491C99.4982 22.8491 99.7921 22.9622 100.031 23.1883C100.269 23.4144 100.391 23.693 100.391 24.018C100.391 24.343 100.267 24.6236 100.022 24.8598C99.7772 25.094 99.4854 25.211 99.1467 25.211C98.8144 25.211 98.5226 25.0919 98.2734 24.8517C98.022 24.6095 97.8963 24.3329 97.8963 24.018ZM100.293 25.7319H100.391C100.363 25.964 100.346 26.182 100.337 26.3839C100.327 26.5838 100.32 26.7715 100.32 26.9411V33.3424H101.145V34.166H97.3234V33.3424H98.1264V27.1732L97.3234 27.3791V26.5858" fill="#19171B"/>
<path d="M101.897 34.166V33.3424H102.698V27.2721H101.53L101.931 26.2083H102.819C102.64 25.9882 102.508 25.7702 102.419 25.5562C102.329 25.3443 102.286 25.1283 102.286 24.9123C102.286 24.2764 102.617 23.6849 103.279 23.1419C103.941 22.6008 104.657 22.3283 105.426 22.3283C105.818 22.3283 106.184 22.3969 106.525 22.5362C106.864 22.6735 107.151 22.8693 107.386 23.1237L106.01 24.2158C105.741 23.8807 105.522 23.6546 105.347 23.5315C105.173 23.4083 104.994 23.3478 104.811 23.3478C104.538 23.3478 104.316 23.4406 104.144 23.6263C103.971 23.8121 103.886 24.0523 103.886 24.345C103.886 24.8618 104.091 25.3019 104.5 25.6632C104.906 26.0266 105.411 26.2083 106.01 26.2083H106.838L106.419 27.2721H104.894V33.3424H106.106V34.166" fill="#19171B"/>
<path d="M107.381 24.018C107.381 23.7031 107.505 23.4285 107.75 23.1984C107.995 22.9662 108.289 22.8491 108.632 22.8491C108.983 22.8491 109.277 22.9622 109.518 23.1883C109.756 23.4144 109.876 23.693 109.876 24.018C109.876 24.343 109.754 24.6236 109.507 24.8598C109.262 25.094 108.97 25.211 108.632 25.211C108.302 25.211 108.01 25.0919 107.758 24.8517C107.507 24.6095 107.381 24.3329 107.381 24.018ZM109.78 25.7319H109.876C109.85 25.964 109.831 26.182 109.822 26.3839C109.812 26.5838 109.808 26.7715 109.808 26.9411V33.3424H110.63V34.166H106.811V33.3424H107.611V27.1732L106.811 27.3791V26.5858" fill="#19171B"/>
<path d="M118.931 27.2621L117.361 28.6368C117.08 27.9928 116.756 27.5144 116.392 27.1995C116.029 26.8866 115.612 26.7291 115.143 26.7291C114.551 26.7291 114.057 26.9673 113.665 27.4458C113.271 27.9222 113.075 28.5338 113.075 29.2828C113.075 30.2578 113.375 31.1057 113.972 31.8264C114.57 32.5491 115.263 32.9084 116.049 32.9084C116.477 32.9084 116.884 32.8115 117.267 32.6197C117.653 32.4259 118.008 32.1393 118.336 31.7597L118.839 32.1695C118.441 32.868 117.91 33.4151 117.252 33.8108C116.592 34.2064 115.878 34.4043 115.109 34.4043C113.901 34.4043 112.924 34.0348 112.178 33.294C111.435 32.5551 111.062 31.5882 111.062 30.3971C111.062 29.1172 111.512 28.0191 112.41 27.1046C113.311 26.1901 114.379 25.7319 115.616 25.7319C116.266 25.7319 116.867 25.859 117.418 26.1134C117.97 26.3678 118.473 26.7513 118.931 27.2621Z" fill="#19171B"/>
<path d="M119.872 24.018C119.872 23.7031 119.996 23.4285 120.241 23.1984C120.486 22.9662 120.78 22.8491 121.125 22.8491C121.474 22.8491 121.768 22.9622 122.006 23.1883C122.245 23.4144 122.366 23.693 122.366 24.018C122.366 24.343 122.243 24.6236 121.998 24.8598C121.753 25.094 121.463 25.211 121.125 25.211C120.792 25.211 120.498 25.0919 120.249 24.8517C119.998 24.6095 119.872 24.3329 119.872 24.018ZM122.268 25.7319H122.366C122.341 25.964 122.322 26.182 122.313 26.3839C122.303 26.5838 122.298 26.7715 122.298 26.9411V33.3424H123.12V34.166H119.301V33.3424H120.102V27.1732L119.301 27.3791V26.5858" fill="#19171B"/>
<path d="M128.997 29.6381C128.863 29.6159 128.729 29.5997 128.597 29.5916C128.465 29.5836 128.318 29.5795 128.154 29.5795C127.421 29.5795 126.829 29.7552 126.379 30.1064C125.928 30.4577 125.702 30.9139 125.702 31.4771C125.702 31.9576 125.855 32.3452 126.16 32.6439C126.465 32.9427 126.859 33.0921 127.344 33.0921C127.866 33.0921 128.271 32.9326 128.561 32.6157C128.85 32.2967 128.997 31.8445 128.997 31.2611V29.6381ZM125.393 25.5583L126.169 25.7743L126.009 26.3577C126.39 26.1518 126.765 25.9983 127.133 25.8954C127.504 25.7924 127.873 25.742 128.241 25.742C129.225 25.742 129.962 25.9781 130.454 26.4505C130.946 26.9209 131.193 27.6295 131.193 28.5722V33.3525H131.992V34.1761H129.198L128.997 33.2334C128.61 33.627 128.199 33.9218 127.764 34.1176C127.329 34.3154 126.869 34.4143 126.384 34.4143C125.585 34.4143 124.918 34.1559 124.381 33.6392C123.845 33.1224 123.576 32.4865 123.576 31.7315C123.576 30.7807 123.947 30.0559 124.692 29.5533C125.438 29.0506 126.512 28.7983 127.913 28.7983C128.096 28.7983 128.277 28.8043 128.456 28.8104C128.635 28.8205 128.814 28.8326 128.997 28.8488V28.2633C128.997 27.8535 128.872 27.5326 128.618 27.3004C128.367 27.0703 128.011 26.9552 127.555 26.9552C127.11 26.9552 126.699 27.0723 126.326 27.3065C125.949 27.5386 125.634 27.8778 125.376 28.3219L124.548 28.0493" fill="#19171B"/>
<path d="M55.5636 40.9731V46.3934H56.4369C57.4274 46.3934 58.1687 46.1693 58.665 45.7191C59.1591 45.271 59.4062 44.5947 59.4062 43.6964C59.4062 42.8243 59.1613 42.1541 58.6735 41.6817C58.1836 41.2093 57.4849 40.9731 56.5775 40.9731H55.5636ZM55.5636 39.8911H56.3496C56.9673 39.8911 57.4402 39.7619 57.7703 39.5055C58.0984 39.2492 58.2624 38.8818 58.2624 38.4013C58.2624 37.9148 58.0877 37.5474 57.7384 37.2971C57.3891 37.0447 56.8757 36.9196 56.2005 36.9196H55.5636V39.8911ZM58.3497 40.3009C59.4637 40.4119 60.3328 40.7672 60.959 41.3648C61.5874 41.9623 61.9005 42.7395 61.9005 43.6964C61.9005 44.8188 61.4979 45.7252 60.6928 46.4176C59.8876 47.11 58.8332 47.4552 57.5296 47.4552H52.1086V46.4802H53.1396V36.8126H52.1086V35.8375H56.8821C58.1133 35.8375 59.0356 36.0354 59.649 36.4351C60.2646 36.8348 60.5735 37.4303 60.5735 38.2216C60.5735 38.7324 60.3754 39.1745 59.9813 39.5459C59.5894 39.9174 59.0441 40.1697 58.3497 40.3009Z" fill="#19171B"/>
<path d="M64.3246 42.7234C64.3246 43.8417 64.5973 44.7926 65.1447 45.5799C65.6921 46.3692 66.3396 46.7608 67.0873 46.7608C67.7306 46.7608 68.2397 46.5186 68.6145 46.028C68.9873 45.5395 69.1747 44.8673 69.1747 44.0093C69.1747 42.8829 68.8978 41.924 68.3462 41.1367C67.7945 40.3494 67.1342 39.9557 66.3695 39.9557C65.7496 39.9557 65.2533 40.204 64.8827 40.7006C64.5099 41.1993 64.3246 41.8735 64.3246 42.7234ZM66.7465 47.6935C65.3854 47.6935 64.2564 47.2857 63.3597 46.4681C62.4629 45.6505 62.0156 44.6149 62.0156 43.3633C62.0156 42.1097 62.4629 41.0741 63.3597 40.2545C64.2564 39.4329 65.3854 39.0231 66.7465 39.0231C68.1118 39.0231 69.2429 39.4329 70.1397 40.2545C71.0364 41.0741 71.4859 42.1097 71.4859 43.3633C71.4859 44.621 71.0364 45.6586 70.1397 46.4721C69.2429 47.2877 68.1118 47.6935 66.7465 47.6935Z" fill="#19171B"/>
<path d="M75.6989 35.6841V36.53L74.915 36.7884V46.6336H75.7159V47.4552H71.9202V46.6336H72.7189V37.4707L71.9202 37.7291V36.8711" fill="#19171B"/>
<path d="M77.043 37.3092C77.043 36.9943 77.1644 36.7197 77.4115 36.4876C77.6565 36.2554 77.9504 36.1403 78.2934 36.1403C78.6448 36.1403 78.9388 36.2534 79.1795 36.4795C79.418 36.7056 79.5373 36.9821 79.5373 37.3092C79.5373 37.6342 79.4138 37.9148 79.1688 38.151C78.9239 38.3852 78.632 38.5022 78.2934 38.5022C77.9611 38.5022 77.6693 38.3831 77.42 38.1409C77.1687 37.9007 77.043 37.6241 77.043 37.3092ZM79.4415 39.0231H79.5373C79.5118 39.2552 79.4947 39.4712 79.4819 39.6731C79.4734 39.875 79.4692 40.0607 79.4692 40.2323V46.6316H80.2914V47.4552H76.4722V46.6316H77.2731V40.4624L76.4722 40.6703V39.875" fill="#19171B"/>
<path d="M87.6039 40.7208C87.5102 40.7854 87.4122 40.8339 87.3142 40.8641C87.2141 40.8944 87.0884 40.9086 86.9351 40.9086C86.754 40.9086 86.443 40.848 85.9978 40.7249C85.5527 40.6017 85.2289 40.5412 85.0308 40.5412C84.7752 40.5412 84.5238 40.6078 84.281 40.743C84.0382 40.8783 83.8039 41.0802 83.576 41.3507L85.4611 45.5819L87.6039 40.7208ZM82.7176 39.0231C82.7687 39.2896 82.8454 39.5641 82.9455 39.8467C83.0435 40.1293 83.1627 40.42 83.3033 40.7208C83.8124 40.089 84.2448 39.6549 84.6027 39.4188C84.9584 39.1846 85.3418 39.0675 85.7508 39.0675C86.0277 39.0675 86.4132 39.12 86.9095 39.229C87.4079 39.338 87.7658 39.3925 87.9831 39.3925C88.1343 39.3925 88.277 39.3723 88.4133 39.3319C88.5454 39.2916 88.703 39.2229 88.8777 39.122L89.2547 39.4672C89.1077 39.6973 88.9203 40.0627 88.6945 40.5674C88.6519 40.6744 88.6199 40.7531 88.5965 40.8016L86.2321 46.139C86.1384 46.3672 86.0575 46.5892 85.9851 46.8032C85.9148 47.0172 85.853 47.2332 85.8019 47.4552H84.0403C83.97 47.1908 83.8316 46.8375 83.6271 46.3974C83.6037 46.3429 83.5866 46.3046 83.576 46.2824L80.9922 40.7047L80.2744 40.9913L79.9677 40.3453" fill="#19171B"/>
<path d="M94.4287 42.9273C94.2945 42.905 94.1603 42.8909 94.0282 42.8828C93.8983 42.8727 93.7492 42.8687 93.5852 42.8687C92.8524 42.8687 92.2624 43.0464 91.8108 43.3956C91.3593 43.7468 91.1356 44.2051 91.1356 44.7683C91.1356 45.2468 91.2869 45.6364 91.5914 45.9331C91.896 46.2319 92.2922 46.3813 92.7779 46.3813C93.2998 46.3813 93.7045 46.2238 93.9942 45.9049C94.2838 45.5879 94.4287 45.1357 94.4287 44.5503V42.9273ZM90.8246 38.8495L91.6 39.0655L91.4423 39.6489C91.8215 39.443 92.1964 39.2875 92.567 39.1866C92.9355 39.0836 93.304 39.0311 93.6725 39.0311C94.6566 39.0311 95.3957 39.2693 95.8878 39.7397C96.3798 40.2121 96.6248 40.9186 96.6248 41.8634V46.6417H97.4257V47.4653H94.631L94.4287 46.5226C94.041 46.9162 93.6299 47.213 93.1975 47.4088C92.763 47.6046 92.3029 47.7035 91.8151 47.7035C91.0163 47.7035 90.3496 47.4451 89.8129 46.9304C89.2761 46.4136 89.0077 45.7777 89.0077 45.0227C89.0077 44.0719 89.3805 43.3451 90.126 42.8425C90.8694 42.3398 91.9429 42.0895 93.3466 42.0895C93.5277 42.0895 93.7087 42.0935 93.8877 42.1016C94.0666 42.1097 94.2476 42.1218 94.4287 42.1379V41.5545C94.4287 41.1427 94.303 40.8217 94.0495 40.5916C93.7982 40.3615 93.4446 40.2464 92.9866 40.2464C92.5436 40.2464 92.1325 40.3635 91.7576 40.5956C91.3827 40.8278 91.0653 41.169 90.8076 41.6131L89.979 41.3405" fill="#19171B"/>
<path d="M104.025 38.9807L104.725 39.2714L103.667 41.4859C103.358 41.2941 103.098 41.1609 102.889 41.0882C102.685 41.0156 102.474 40.9812 102.265 40.9812C101.926 40.9812 101.652 41.1044 101.445 41.3507C101.236 41.5969 101.134 41.9381 101.134 42.3741V46.6377H102.163V47.4633H98.1371V46.6377H98.9359V41.71C98.9316 41.4617 98.906 41.3002 98.8634 41.2255C98.8187 41.1508 98.7356 41.0802 98.6121 41.0135L98.2351 41.387L97.6344 40.8722L99.168 39.0291C99.6367 39.2633 100.001 39.4975 100.257 39.7337C100.512 39.9699 100.7 40.2444 100.817 40.5553C101.132 39.9941 101.417 39.5984 101.675 39.3723C101.933 39.1442 102.208 39.0291 102.502 39.0291C102.663 39.0291 102.853 39.0635 103.066 39.1301C103.279 39.1967 103.503 39.2936 103.737 39.4208" fill="#19171B"/>
<path d="M105.171 37.3092C105.171 36.9943 105.292 36.7197 105.537 36.4876C105.782 36.2554 106.076 36.1403 106.421 36.1403C106.77 36.1403 107.064 36.2534 107.303 36.4795C107.543 36.7056 107.663 36.9821 107.663 37.3092C107.663 37.6342 107.539 37.9148 107.294 38.151C107.049 38.3852 106.76 38.5022 106.421 38.5022C106.089 38.5022 105.797 38.3831 105.545 38.1409C105.294 37.9007 105.171 37.6241 105.171 37.3092ZM107.567 39.0231H107.663C107.637 39.2552 107.618 39.4712 107.609 39.6731C107.599 39.875 107.595 40.0607 107.595 40.2323V46.6316H108.417V47.4552H104.598V46.6316H105.398V40.4624L104.598 40.6703V39.875" fill="#19171B"/>
<path d="M114.293 42.9273C114.157 42.905 114.025 42.8909 113.893 42.8828C113.761 42.8727 113.614 42.8687 113.45 42.8687C112.717 42.8687 112.127 43.0464 111.676 43.3956C111.224 43.7468 110.998 44.2051 110.998 44.7683C110.998 45.2468 111.152 45.6364 111.456 45.9331C111.761 46.2319 112.155 46.3813 112.641 46.3813C113.162 46.3813 113.567 46.2238 113.857 45.9049C114.149 45.5879 114.293 45.1357 114.293 44.5503V42.9273ZM110.689 38.8495L111.465 39.0655L111.305 39.6489C111.686 39.443 112.061 39.2875 112.43 39.1866C112.8 39.0836 113.169 39.0311 113.537 39.0311C114.521 39.0311 115.258 39.2693 115.75 39.7397C116.242 40.2121 116.49 40.9186 116.49 41.8634V46.6417H117.29V47.4653H114.494L114.293 46.5226C113.906 46.9162 113.495 47.213 113.06 47.4088C112.626 47.6046 112.166 47.7035 111.68 47.7035C110.881 47.7035 110.214 47.4451 109.678 46.9304C109.141 46.4136 108.872 45.7777 108.872 45.0227C108.872 44.0719 109.243 43.3451 109.989 42.8425C110.734 42.3398 111.808 42.0895 113.211 42.0895C113.392 42.0895 113.573 42.0935 113.75 42.1016C113.929 42.1097 114.11 42.1218 114.293 42.1379V41.5545C114.293 41.1427 114.168 40.8217 113.914 40.5916C113.663 40.3615 113.307 40.2464 112.851 40.2464C112.406 40.2464 111.995 40.3635 111.622 40.5956C111.245 40.8278 110.93 41.169 110.672 41.6131L109.842 41.3405" fill="#19171B"/>
<path d="M118.803 46.6316V40.4806L118.002 40.6885V39.881L120.909 39.0655H121.016L120.999 40.4463C121.61 39.9658 122.179 39.6085 122.701 39.3743C123.223 39.1402 123.71 39.0231 124.16 39.0231C124.92 39.0231 125.525 39.2472 125.973 39.6953C126.424 40.1435 126.648 40.7491 126.648 41.5162V46.6316H127.449V47.4552H123.629V46.6316H124.452V41.7746C124.452 41.3587 124.341 41.0418 124.119 40.8238C123.9 40.6058 123.578 40.4967 123.161 40.4967C122.818 40.4967 122.456 40.5795 122.075 40.7471C121.693 40.9126 121.335 41.1407 120.999 41.4334V46.6316H121.821V47.4552H118.002V46.6316" fill="#19171B"/>
<path d="M133.311 42.9273C133.176 42.905 133.042 42.8909 132.91 42.8828C132.778 42.8727 132.631 42.8687 132.467 42.8687C131.737 42.8687 131.144 43.0464 130.693 43.3956C130.241 43.7468 130.015 44.2051 130.015 44.7683C130.015 45.2468 130.169 45.6364 130.473 45.9331C130.778 46.2319 131.172 46.3813 131.66 46.3813C132.182 46.3813 132.586 46.2238 132.876 45.9049C133.166 45.5879 133.311 45.1357 133.311 44.5503V42.9273ZM129.707 38.8495L130.482 39.0655L130.324 39.6489C130.703 39.443 131.078 39.2875 131.447 39.1866C131.817 39.0836 132.186 39.0311 132.554 39.0311C133.539 39.0311 134.276 39.2693 134.77 39.7397C135.26 40.2121 135.507 40.9186 135.507 41.8634V46.6417H136.308V47.4653H133.513L133.311 46.5226C132.923 46.9162 132.512 47.213 132.079 47.4088C131.645 47.6046 131.185 47.7035 130.697 47.7035C129.898 47.7035 129.232 47.4451 128.695 46.9304C128.158 46.4136 127.89 45.7777 127.89 45.0227C127.89 44.0719 128.262 43.3451 129.006 42.8425C129.751 42.3398 130.825 42.0895 132.229 42.0895C132.41 42.0895 132.591 42.0935 132.77 42.1016C132.949 42.1097 133.13 42.1218 133.311 42.1379V41.5545C133.311 41.1427 133.185 40.8217 132.931 40.5916C132.68 40.3615 132.327 40.2464 131.869 40.2464C131.423 40.2464 131.012 40.3635 130.64 40.5956C130.265 40.8278 129.947 41.169 129.69 41.6131L128.859 41.3405" fill="#19171B"/>
<path fill-rule="evenodd" clip-rule="evenodd" d="M18.5049 17.6833L17.6742 15.7998L16.8094 17.6833H18.5049ZM18.6178 17.9396H16.6922L16.3557 18.6724C16.2726 18.8541 16.2321 18.9874 16.2321 19.0782C16.2321 19.1489 16.2684 19.2114 16.3386 19.2639C16.4111 19.3184 16.5644 19.3527 16.8009 19.3689V19.4981H15.2523V19.3689C15.4568 19.3346 15.591 19.2902 15.6506 19.2336C15.7742 19.1226 15.9105 18.8985 16.0596 18.5594L17.819 14.7339H17.9362L19.6509 18.6078C19.7893 18.9187 19.915 19.1206 20.0279 19.2135C20.1387 19.3063 20.2963 19.3568 20.4965 19.3689V19.4981H18.5539V19.3689C18.752 19.3588 18.8819 19.3285 18.9522 19.276C19.0204 19.2235 19.0545 19.1589 19.0545 19.0843C19.0545 18.9833 19.0055 18.8238 18.9096 18.6058" fill="#FFD200"/>
<path fill-rule="evenodd" clip-rule="evenodd" d="M18.1299 28.6469V28.5197H19.8851V28.6469H19.6977C19.5017 28.6469 19.3505 28.7216 19.2461 28.873C19.195 28.9437 19.1694 29.1072 19.1694 29.3615V31.2228C19.1694 31.683 19.1183 32.0404 19.0182 32.2947C18.9202 32.5491 18.7242 32.7671 18.4345 32.9488C18.1427 33.1305 17.7465 33.2213 17.246 33.2213C16.7007 33.2213 16.2853 33.1345 16.0041 32.9609C15.7208 32.7873 15.5206 32.5531 15.4035 32.2584C15.3247 32.0585 15.2863 31.681 15.2863 31.1279V29.3333C15.2863 29.0527 15.2437 28.8669 15.1606 28.7801C15.0754 28.6913 14.9412 28.6469 14.7538 28.6469H14.5685V28.5197H16.7071V28.6469H16.5175C16.3151 28.6469 16.1682 28.7075 16.083 28.8266C16.0212 28.9073 15.9914 29.0769 15.9914 29.3333V31.3358C15.9914 31.5135 16.0084 31.7194 16.0446 31.9495C16.0808 32.1796 16.1447 32.3593 16.2384 32.4885C16.3322 32.6157 16.4685 32.7227 16.6432 32.8054C16.82 32.8902 17.0372 32.9306 17.2928 32.9306C17.6209 32.9306 17.9127 32.866 18.1725 32.7348C18.4303 32.6036 18.6071 32.436 18.7029 32.2321C18.7966 32.0282 18.8456 31.681 18.8456 31.1945V29.3333C18.8456 29.0466 18.8116 28.869 18.7413 28.7963C18.6475 28.6974 18.5048 28.6469 18.3174 28.6469" fill="#FFD200"/>
<path fill-rule="evenodd" clip-rule="evenodd" d="M23.4103 30.7746C23.5423 30.7988 23.6574 30.815 23.7596 30.8271C23.8618 30.8372 23.947 30.8432 24.0195 30.8432C24.2772 30.8432 24.4987 30.7524 24.6862 30.5687C24.8736 30.387 24.9673 30.1508 24.9673 29.8601C24.9673 29.6603 24.9226 29.4745 24.8332 29.303C24.7458 29.1334 24.618 29.0042 24.454 28.9194C24.29 28.8346 24.1047 28.7922 23.8981 28.7922C23.7703 28.7922 23.6084 28.8124 23.4103 28.8568V30.7746ZM23.4103 30.9664V32.3068C23.4103 32.5955 23.4444 32.7751 23.5146 32.8458C23.6105 32.9447 23.7553 32.9952 23.947 32.9952H24.1451V33.1203H21.9554V32.9952H22.1471C22.3644 32.9952 22.5199 32.9306 22.6136 32.8054C22.6626 32.7348 22.6882 32.5692 22.6882 32.3068V29.3332C22.6882 29.0446 22.6541 28.8669 22.5859 28.7963C22.488 28.6973 22.341 28.6469 22.1471 28.6469H21.9554V28.5217H23.8192C24.2751 28.5217 24.6329 28.5641 24.8971 28.6469C25.1591 28.7317 25.3806 28.875 25.5595 29.0769C25.7406 29.2787 25.83 29.5149 25.83 29.7915C25.83 30.167 25.6937 30.4718 25.421 30.708C25.1484 30.9422 24.7629 31.0613 24.2623 31.0613C24.1409 31.0613 24.0109 31.0532 23.8661 31.037C23.7255 31.0209 23.5722 30.9987 23.4103 30.9664Z" fill="#FFD200"/>
<path fill-rule="evenodd" clip-rule="evenodd" d="M29.1828 32.7853C29.4491 32.8458 29.7132 32.8761 29.973 32.8761C30.3884 32.8761 30.7058 32.7853 30.9252 32.6016C31.1424 32.4158 31.2532 32.1897 31.2532 31.9172C31.2532 31.7396 31.2021 31.568 31.0998 31.4024C30.9997 31.2369 30.8378 31.1077 30.6142 31.0128C30.3927 30.918 30.1179 30.8715 29.7899 30.8715C29.6471 30.8715 29.5257 30.8735 29.4256 30.8776C29.3255 30.8816 29.2446 30.8897 29.1828 30.9018V32.7853ZM29.1828 30.5788C29.268 30.595 29.3638 30.6071 29.4725 30.6151C29.5811 30.6232 29.7004 30.6273 29.8325 30.6273C30.1669 30.6273 30.4182 30.5909 30.5865 30.5203C30.7548 30.4496 30.8826 30.3406 30.972 30.1953C31.0615 30.0479 31.1062 29.8884 31.1062 29.7148C31.1062 29.4483 30.9955 29.2182 30.7739 29.0305C30.5503 28.8407 30.2265 28.7458 29.8005 28.7458C29.5705 28.7458 29.366 28.7721 29.1828 28.8205V30.5788ZM30.9827 30.7686C31.3043 30.8352 31.5472 30.9442 31.709 31.0936C31.9306 31.3035 32.0413 31.5579 32.0413 31.8587C32.0413 32.0888 31.9668 32.3088 31.8219 32.5168C31.675 32.7267 31.4747 32.8801 31.2191 32.977C30.9635 33.0739 30.5737 33.1204 30.0497 33.1204H27.8536V32.9952H28.0283C28.2221 32.9952 28.3606 32.9326 28.4437 32.8115C28.4969 32.7328 28.5225 32.5652 28.5225 32.3068V29.3333C28.5225 29.0486 28.4884 28.871 28.4224 28.7963C28.335 28.6974 28.203 28.6469 28.0283 28.6469H27.8536V28.5197H29.8623C30.2393 28.5197 30.5375 28.548 30.7654 28.6025C31.1084 28.6832 31.3704 28.8266 31.5493 29.0345C31.7303 29.2404 31.8219 29.4766 31.8219 29.7451C31.8219 29.9752 31.7495 30.1811 31.6089 30.3628C31.4683 30.5445 31.2596 30.6797 30.9827 30.7686Z" fill="#FFD200"/>
</svg>
